<?xml version="1.0" encoding="UTF-8"?>
<svg version="1.1" xmlns="http://www.w3.org/2000/svg" width="500" height="500">
<path d="M0 0 C1.11733017 -0.00101212 1.11733017 -0.00101212 2.25723267 -0.00204468 C51.12352816 0.06772799 102.06001652 14.22154591 141.875 43.25 C142.47586426 43.68393066 143.07672852 44.11786133 143.69580078 44.56494141 C163.42874473 58.86310984 181.95309413 74.87421728 196.875 94.25 C198.01582031 95.64798828 198.01582031 95.64798828 199.1796875 97.07421875 C217.56367688 120.01015438 231.37640465 147.15556209 239.875 175.25 C240.13861328 176.10303711 240.40222656 176.95607422 240.67382812 177.83496094 C247.7912028 201.16794467 251.10500589 225.01166595 251.125 249.375 C251.12567474 250.11988678 251.12634949 250.86477356 251.12704468 251.63223267 C251.10747231 265.34002417 250.17803727 278.71792533 247.875 292.25 C247.64151855 293.64025391 247.64151855 293.64025391 247.40332031 295.05859375 C238.83462302 343.83688652 215.32925947 388.83252698 180.875 424.25 C180.34519531 424.80026855 179.81539063 425.35053711 179.26953125 425.91748047 C172.2017481 433.23918338 164.94104431 440.01767511 156.875 446.25 C155.98941406 446.95253906 155.10382813 447.65507812 154.19140625 448.37890625 C132.47526675 465.21569124 107.89003779 478.46785348 81.875 487.25 C80.95219238 487.56308105 80.02938477 487.87616211 79.07861328 488.19873047 C65.19764012 492.83363226 51.34762201 496.11528825 36.875 498.25 C36.12992187 498.36714355 35.38484375 498.48428711 34.6171875 498.60498047 C-28.77266723 508.30074689 -94.50561912 489.834983 -146.25 453 C-147.88671337 451.76537684 -149.51210617 450.51558227 -151.125 449.25 C-152.00800781 448.55777344 -152.89101562 447.86554688 -153.80078125 447.15234375 C-160.85944066 441.49143868 -167.56698517 435.47715267 -174.125 429.25 C-174.65915527 428.74452637 -175.19331055 428.23905273 -175.74365234 427.71826172 C-183.48609708 420.33935525 -190.38389696 412.6107788 -196.78222656 404.04150391 C-198.12707029 402.24723786 -199.4952424 400.47281563 -200.8671875 398.69921875 C-224.39247981 367.92383635 -239.71427514 330.36262203 -246.125 292.25 C-246.28581055 291.31043457 -246.44662109 290.37086914 -246.61230469 289.40283203 C-256.65690932 227.92363851 -242.49991428 160.74108274 -206.546875 109.58984375 C-205.74319849 108.47394992 -204.93594265 107.3606246 -204.125 106.25 C-203.72603516 105.70230957 -203.32707031 105.15461914 -202.91601562 104.59033203 C-189.46077109 86.29791625 -174.13930952 69.14897157 -156.125 55.25 C-155.1453125 54.46496094 -154.165625 53.67992187 -153.15625 52.87109375 C-109.69265584 18.26397451 -55.39805661 0.04546319 0 0 Z " fill="#000000" transform="translate(249.125,-0.25)"/>
<path d="M0 0 C1.02480469 -0.020625 2.04960937 -0.04125 3.10546875 -0.0625 C16.72432285 -0.13171908 27.86880094 4.33438427 37.7890625 13.62890625 C46.63396377 23.55353627 48.61669309 35.70905567 48.3671875 48.55859375 C46.77243648 72.86568588 34.50056683 97.69681603 19.125 116.25 C18.69574219 116.77787109 18.26648438 117.30574219 17.82421875 117.84960938 C1.24687116 138.22493718 -18.7106846 155.46782281 -43.875 164.25 C-44.535 164.25 -45.195 164.25 -45.875 164.25 C-41.96410582 169.08923774 -38.05422243 173.9223833 -33.95703125 178.60546875 C-27.58097967 185.89446207 -21.76055185 193.35672966 -16.23486328 201.30615234 C2.80646846 231.94113597 2.80646846 231.94113597 30.125 253.25 C36.05555029 254.01877504 40.26832876 252.5208194 45.125 249.25 C46.21830227 248.19776072 47.28261662 247.11438664 48.3125 246 C51.125 243.25 51.125 243.25 54 242.875 C54.70125 242.99875 55.4025 243.1225 56.125 243.25 C57 245.3125 57 245.3125 57.125 248.25 C53.46753166 254.59635812 46.96304879 258.9706504 40.125 261.25 C29.75135271 262.25575528 23.63612129 260.71590863 15.6328125 254.23046875 C1.27123313 241.76776082 -9.23503062 225.91699489 -20.0625 210.4375 C-27.14427527 200.32901577 -34.75343884 190.70068695 -42.6875 181.25 C-43.1194165 180.73405273 -43.55133301 180.21810547 -43.99633789 179.68652344 C-49.06415892 172.980646 -49.06415892 172.980646 -55.84326172 168.83813477 C-58.70955229 168.8030496 -61.432271 169.15145235 -64.2265625 169.7734375 C-67.26290719 170.31980041 -70.10441303 170.34638008 -73.1875 170.3125 C-74.25613281 170.30347656 -75.32476562 170.29445313 -76.42578125 170.28515625 C-77.23402344 170.27355469 -78.04226562 170.26195312 -78.875 170.25 C-79.10574219 171.40113281 -79.33648437 172.55226563 -79.57421875 173.73828125 C-81.21327314 181.78555925 -82.9491804 189.76737198 -85.125 197.6875 C-88.65209948 210.65731567 -91.39398415 223.81970179 -94.26634216 236.94612122 C-95.53058208 242.7132482 -96.82572467 248.47291764 -98.1328125 254.23046875 C-98.6823123 256.66170456 -99.23130682 259.09305388 -99.78012085 261.52444458 C-100.13070008 263.07231872 -100.48321045 264.61975694 -100.83779907 266.16671753 C-102.67271133 274.17833868 -104.30150387 282.02719631 -104.875 290.25 C-104.215 289.59 -103.555 288.93 -102.875 288.25 C-100.75 288.625 -100.75 288.625 -98.875 289.25 C-97.71597082 292.68845323 -97.79692605 294.06032622 -99.203125 297.4765625 C-99.83734375 298.59804688 -100.4715625 299.71953125 -101.125 300.875 C-101.74890625 302.00164062 -102.3728125 303.12828125 -103.015625 304.2890625 C-105.72150255 308.59800195 -105.72150255 308.59800195 -107.875 310.25 C-110.4375 310.125 -110.4375 310.125 -112.875 309.25 C-117.89836598 301.71495103 -114.55792057 289.61123854 -112.875 281.1875 C-112.65497314 280.04756592 -112.43494629 278.90763184 -112.20825195 277.7331543 C-107.44066657 253.47812427 -101.78165893 229.42766947 -95.69921875 205.47265625 C-93.67564108 197.50133702 -91.7653216 189.50557273 -89.8828125 181.5 C-88.91931028 177.40651872 -87.90366062 173.32757361 -86.875 169.25 C-87.4836792 169.21471191 -88.0923584 169.17942383 -88.71948242 169.14306641 C-96.25660756 168.64281096 -102.00655136 166.48123855 -107.375 161.0625 C-110.11162168 157.58564459 -110.64879059 154.70452558 -110.3359375 150.33203125 C-109.47943142 146.46323682 -107.41363657 144.24661687 -104.15625 142.13671875 C-96.81240434 139.282176 -87.20611202 140.90404415 -79.875 143.25 C-79.75835999 142.57494415 -79.64171997 141.89988831 -79.52154541 141.20437622 C-78.37962641 134.7422643 -77.03240585 128.36814258 -75.484375 121.9921875 C-75.25922714 121.05418304 -75.03407928 120.11617859 -74.80210876 119.14974976 C-74.07920243 116.14081904 -73.3521176 113.13291552 -72.625 110.125 C-72.12315627 108.03880852 -71.62161157 105.95254509 -71.12036133 103.86621094 C-69.70863521 97.99331987 -68.29228537 92.12155149 -66.875 86.25 C-66.00376752 82.63790479 -65.13314728 79.02566334 -64.26391602 75.41308594 C-63.80373835 73.50189906 -63.34203839 71.59107794 -62.87866211 69.68066406 C-61.62678654 64.49373391 -60.43589459 59.29717572 -59.2890625 54.0859375 C-59.02134033 52.88291992 -58.75361816 51.67990234 -58.4777832 50.44042969 C-57.9640945 48.12287952 -57.45951019 45.80328597 -56.96557617 43.48144531 C-56.73588135 42.44858398 -56.50618652 41.41572266 -56.26953125 40.3515625 C-56.07206299 39.43713379 -55.87459473 38.52270508 -55.67114258 37.58056641 C-54.80575261 35.04729052 -54.00304285 33.8546875 -51.875 32.25 C-49.73754078 32.50146579 -48.41574221 32.70925779 -46.875 34.25 C-46.84279203 43.01304555 -49.44934574 51.6702928 -51.5 60.125 C-51.88365923 61.72967011 -52.2670314 63.33440887 -52.65014648 64.93920898 C-55.12804497 75.26584493 -57.6990186 85.56894395 -60.29220581 95.86711884 C-60.80784424 97.91499205 -61.32291738 99.96300679 -61.83789062 102.01104736 C-63.38125538 108.14631272 -64.92783072 114.2806739 -66.49046612 120.41106319 C-67.30126522 123.59718905 -68.10492249 126.78512007 -68.91015625 129.97265625 C-69.2097374 131.13878952 -69.50931854 132.30492279 -69.81797791 133.50639343 C-70.08953201 134.5858876 -70.36108612 135.66538177 -70.64086914 136.77758789 C-70.99986046 138.18784996 -70.99986046 138.18784996 -71.36610413 139.62660217 C-71.87263143 142.23778986 -71.96980413 144.59764124 -71.875 147.25 C-70.89917969 147.79269531 -69.92335937 148.33539063 -68.91796875 148.89453125 C-67.63266633 149.6169275 -66.34751813 150.33959818 -65.0625 151.0625 C-64.41990234 151.41892578 -63.77730469 151.77535156 -63.11523438 152.14257812 C-58.1440315 154.95014866 -58.1440315 154.95014866 -56.23828125 157.07421875 C-54.88924783 158.51613598 -54.88924783 158.51613598 -52.62109375 158.09765625 C-17.27660024 147.18762056 9.87330913 120.92346472 27.3125 88.8125 C36.34829549 71.05248817 43.13221362 50.53818174 38 30.5625 C35.25089988 23.13214921 30.01419578 16.50841991 22.765625 13.16015625 C6.48888265 6.39423228 -13.07531565 7.94149771 -29.875 12.25 C-30.54515137 12.41628906 -31.21530273 12.58257812 -31.90576172 12.75390625 C-55.13264234 18.61352575 -76.51970789 29.92262692 -94.875 45.25 C-95.38901367 45.67361816 -95.90302734 46.09723633 -96.43261719 46.53369141 C-109.57252954 57.47264787 -121.5725559 72.24115361 -123.2109375 89.86328125 C-123.28674025 97.04180178 -123.0030312 102.67095022 -119.65234375 109.1015625 C-118.66772877 111.82286019 -119.10907694 113.50423808 -119.875 116.25 C-122.1875 116.5625 -122.1875 116.5625 -124.875 116.25 C-126.5 114.375 -126.5 114.375 -127.875 111.25 C-128.15472656 110.61449219 -128.43445313 109.97898437 -128.72265625 109.32421875 C-132.73664712 98.51444799 -132.47874913 84.77231118 -128.25 74.09765625 C-121.45455206 60.02412913 -111.31640609 46.82031238 -98.875 37.25 C-98.37726074 36.85780273 -97.87952148 36.46560547 -97.36669922 36.06152344 C-69.59722273 14.29386302 -35.50796872 0.1773182 0 0 Z " fill="#F4F4F4" transform="translate(230.875,87.75)"/>
<path d="M0 0 C2.625 0.375 2.625 0.375 5 1 C5.29066573 9.23855668 4.16375584 17.17109068 3 25.3125 C2.62146032 27.99562224 2.24758786 30.67931797 1.875 33.36328125 C1.70742188 34.54188721 1.53984375 35.72049316 1.3671875 36.93481445 C0.92070499 40.14741736 0.92070499 40.14741736 1 44 C1.53625 43.48953125 2.0725 42.9790625 2.625 42.453125 C13.16943027 32.6717785 24.82875678 24.35565445 36.6875 16.25 C37.44160156 15.7243042 38.19570313 15.1986084 38.97265625 14.65698242 C45.52072082 10.2578709 45.52072082 10.2578709 50 11 C50.21484375 13.30859375 50.21484375 13.30859375 50 16 C48.62890625 17.59765625 48.62890625 17.59765625 46.5625 19.0625 C45.74652344 19.65417969 44.93054688 20.24585938 44.08984375 20.85546875 C43.07019531 21.56316406 42.05054688 22.27085937 41 23 C38.20640578 24.95558709 35.41568124 26.91525884 32.625 28.875 C31.88378906 29.39433105 31.14257812 29.91366211 30.37890625 30.44873047 C19.89755487 37.83227047 9.70787202 45.97674882 0.83984375 55.26171875 C-1 57 -1 57 -3 57 C-3.103125 58.29421875 -3.20625 59.5884375 -3.3125 60.921875 C-4.10418043 68.76720815 -5.56955591 76.50143638 -7 84.25 C-7.15106201 85.07081055 -7.30212402 85.89162109 -7.45776367 86.73730469 C-12.34908378 113.13264666 -17.94254637 139.6850662 -27 165 C-27.31291992 165.88913086 -27.62583984 166.77826172 -27.94824219 167.69433594 C-40.39402804 202.77782978 -40.39402804 202.77782978 -53.05078125 210.203125 C-56.06476622 211.43529521 -57.92094025 210.94256931 -61 210 C-66.88741927 205.93487717 -68.68213209 199.74438283 -70 193 C-74.68002557 149.5200993 -51.3465763 104.90755813 -25 72 C-15.15560142 59.87924081 -15.15560142 59.87924081 -11.96948242 57.45507812 C-8.95838748 53.70156744 -8.75862838 49.73015799 -8.11328125 45.046875 C-7.9659404 44.07268616 -7.81859955 43.09849731 -7.66679382 42.0947876 C-7.19982851 38.98193456 -6.75599753 35.86627402 -6.3125 32.75 C-6.00344835 30.66774628 -5.69291744 28.58571154 -5.38085938 26.50390625 C-4.8091427 22.66238455 -4.24351803 18.8201525 -3.69262695 14.97558594 C-3.51106552 13.71385559 -3.51106552 13.71385559 -3.32583618 12.42663574 C-3.0148307 10.11045033 -2.77177513 7.79413768 -2.53198242 5.46972656 C-2 2 -2 2 0 0 Z " fill="#F3F3F3" transform="translate(368,219)"/>
<path d="M0 0 C-0.56571672 8.57961405 -2.30107781 16.86899616 -4.125 25.25 C-4.43804959 26.70294903 -4.75103682 28.1559115 -5.06396484 29.60888672 C-6.02992523 34.07541837 -7.0122937 38.53823246 -8 43 C-8.15549316 43.70378784 -8.31098633 44.40757568 -8.47119141 45.13269043 C-11.68524595 59.65278427 -14.95680389 73.99323648 -20 88 C-20.44826376 89.58031968 -20.8864116 91.16355764 -21.3125 92.75 C-25.08965347 105.56227627 -31.12587966 123.74301218 -41 133 C-44.25 133.8125 -44.25 133.8125 -47 134 C-56.38755426 114.97343913 -49.79915813 90.34041701 -43.70458984 71.17504883 C-39.46024901 58.76803366 -16.34934052 0 0 0 Z " fill="#030303" transform="translate(356,288)"/>
<path d="M0 0 C4.805771 0.09699721 8.99422734 1.58456063 13.4375 3.3125 C12.5625 10.9375 12.5625 10.9375 11.4375 14.3125 C4.00686805 13.91443043 -1.25993872 11.61506128 -6.5625 6.3125 C-5.9971559 1.78974723 -4.62894874 0.40604814 0 0 Z " fill="#090909" transform="translate(134.5625,235.6875)"/>
<path d="M0 0 C0.8353125 0.37125 0.8353125 0.37125 1.6875 0.75 C2.375 3.0625 2.375 3.0625 2.6875 5.75 C1.625 7.5625 1.625 7.5625 -0.3125 8.75 C-3.5 8.9375 -3.5 8.9375 -6.3125 8.75 C-6.6425 7.1 -6.9725 5.45 -7.3125 3.75 C-2.88173077 -0.31153846 -2.88173077 -0.31153846 0 0 Z " fill="#EFEFEF" transform="translate(375.3125,187.25)"/>
<path d="M0 0 C4.51478398 0.53115106 7.34666857 2.36620292 11 5 C7.79619983 7.13586678 6.98060033 7.23132175 3.3125 7.125 C2.10013672 7.09792969 2.10013672 7.09792969 0.86328125 7.0703125 C-0.05904297 7.03550781 -0.05904297 7.03550781 -1 7 C-0.67 4.69 -0.34 2.38 0 0 Z " fill="#0D0D0D" transform="translate(155,243)"/>
</svg>
