<?xml version="1.0" encoding="UTF-8"?>
<svg version="1.1" xmlns="http://www.w3.org/2000/svg" width="1280" height="1280">
<path d="M0 0 C2.02748603 0.12659393 4.05552952 0.24450799 6.08398438 0.35449219 C27.30392985 1.5143932 48.33970447 4.32493673 68.73730469 10.44750977 C73.94523695 11.98749631 79.13019802 12.98450922 84.49511719 13.81201172 C106.99395738 17.33236804 123.83382837 28.63014614 140.99511719 43.18701172 C142.1434472 44.14807766 143.29189027 45.10900853 144.44042969 46.06982422 C160.2644987 59.37672033 171.52284545 72.35938088 179.43652344 91.51513672 C180.71626179 94.53005915 182.10321427 97.32584412 183.68261719 100.18701172 C189.32311582 111.13292986 191.04405197 124.41101707 191.41699219 136.55419922 C191.46080772 137.90980705 191.46080772 137.90980705 191.50550842 139.2928009 C192.64714697 176.89359535 192.64714697 176.89359535 188.99511719 195.18701172 C188.76018555 196.41605225 188.76018555 196.41605225 188.52050781 197.66992188 C187.12835044 204.77702732 185.71027427 211.66391071 182.04980469 217.99169922 C180.52741631 221.16052244 179.6586308 224.50838054 178.68261719 227.87451172 C174.60379305 241.4538392 167.49059812 251.85238229 157.99511719 262.18701172 C157.38958008 262.84749512 156.78404297 263.50797852 156.16015625 264.18847656 C143.79637935 277.60800167 131.3765862 290.90701166 116.99511719 302.18701172 C115.15851973 303.68301336 113.325217 305.18306831 111.49511719 306.68701172 C108.7843623 308.90699345 106.07201374 311.12465396 103.35058594 313.33154297 C99.47480866 316.48096667 95.60933907 319.63149247 91.85839844 322.92919922 C83.07867704 330.63461965 73.88370861 337.60612522 64.41210938 344.43896484 C62.05904881 346.1407743 59.71718665 347.85691887 57.37792969 349.57763672 C48.07754245 356.39497902 38.58543337 362.80036208 28.85839844 368.99072266 C26.25285593 370.66356834 23.68643508 372.39224714 21.12011719 374.12451172 C16.05892881 377.52174775 10.91032611 380.76420615 5.74511719 383.99951172 C-6.9854532 391.9960506 -19.24879654 400.5555998 -31.33691406 409.48779297 C-40.44426428 416.20982708 -49.69178914 422.75393357 -59.00488281 429.18701172 C-59.8440625 429.76837891 -60.68324219 430.34974609 -61.54785156 430.94873047 C-62.35867188 431.50173828 -63.16949219 432.05474609 -64.00488281 432.62451172 C-65.08769531 433.36507812 -65.08769531 433.36507812 -66.19238281 434.12060547 C-68.00488281 435.18701172 -68.00488281 435.18701172 -70.00488281 435.18701172 C-70.33488281 436.17701172 -70.66488281 437.16701172 -71.00488281 438.18701172 C-73.01660156 440.02685547 -73.01660156 440.02685547 -75.69238281 442.12451172 C-80.2097053 445.72782343 -84.63300083 449.40876067 -89.00488281 453.18701172 C-97.62668278 460.59861177 -106.30194879 467.7614901 -115.59594727 474.31640625 C-125.42731387 481.27967694 -134.74351764 488.73704988 -143.57128906 496.93701172 C-145.6149243 498.82647223 -147.69292599 500.6404309 -149.81738281 502.43701172 C-158.11118923 509.65125243 -165.95553909 517.60687387 -173.04003906 526.00732422 C-175.87857149 529.15623296 -178.92008894 532.09050939 -181.94238281 535.06201172 C-186.72727801 539.77132307 -191.01717817 544.57582997 -195.10253906 549.91357422 C-197.1315351 552.3383703 -199.29728724 554.31281345 -201.69238281 556.37451172 C-213.20204483 566.46977595 -221.62299049 578.00540888 -228.95629883 591.36328125 C-229.93253192 593.06117676 -231.02763399 594.68917751 -232.12988281 596.30810547 C-252.31096298 627.2944723 -245.59519485 677.56224411 -238.50878906 711.98876953 C-235.86639592 723.51595358 -232.03536974 734.59977696 -227.49316406 745.50341797 C-225.91847267 749.4008825 -224.54737397 753.33487458 -223.19238281 757.31201172 C-218.3783829 771.21858822 -212.55891627 784.69103756 -205.51245117 797.61083984 C-202.38180199 803.37482678 -199.54983438 809.25393922 -196.75488281 815.18701172 C-185.70876954 838.93315809 -185.70876954 838.93315809 -172.06738281 861.22216797 C-169.39255506 865.06723287 -166.92531297 869.02876516 -164.44238281 872.99951172 C-159.89812795 880.24123628 -155.25782486 887.41421336 -150.56738281 894.56201172 C-145.05941126 902.95833562 -139.69245356 911.42774083 -134.47973633 920.01074219 C-131.92910766 924.18649414 -129.29001578 928.24409234 -126.45019531 932.22998047 C-123.26577002 936.72695269 -120.50189538 941.3446611 -117.87988281 946.18701172 C-117.45030273 946.9760791 -117.02072266 947.76514648 -116.578125 948.578125 C-115.74380058 950.11575636 -114.91225913 951.65490222 -114.08398438 953.19580078 C-113.23355521 954.76505423 -112.35476686 956.31893949 -111.46582031 957.86669922 C-101.11768044 976.62687537 -96.13719218 1002.68373415 -95.65332031 1023.89013672 C-95.63016754 1024.80857361 -95.60701477 1025.7270105 -95.5831604 1026.67327881 C-95.53573496 1028.6096089 -95.49047652 1030.54599315 -95.44726562 1032.48242188 C-95.38040431 1035.41414531 -95.3024213 1038.34543134 -95.22363281 1041.27685547 C-94.76998807 1059.59322594 -94.76998807 1059.59322594 -96.00488281 1068.18701172 C-96.11912598 1069.03376465 -96.23336914 1069.88051758 -96.35107422 1070.75292969 C-100.22686752 1097.34614557 -112.73197843 1111.92568593 -133.7644043 1127.72827148 C-151.97028708 1141.13519186 -173.24851541 1146.6718854 -195.64038086 1143.36645508 C-213.4271219 1140.36842079 -227.6546151 1131.31360111 -238.44238281 1116.81201172 C-245.79524105 1105.83402338 -251.64348536 1093.66231716 -256.65332031 1081.46044922 C-258.96547474 1075.86049138 -261.4795321 1070.35018511 -263.96972656 1064.82763672 C-273.94271764 1042.67927532 -280.85609356 1020.37858496 -286.25488281 996.73779297 C-286.46435547 995.83053467 -286.67382812 994.92327637 -286.88964844 993.98852539 C-287.28158714 992.28343651 -287.66647361 990.57670015 -288.04199219 988.86791992 C-289.46981031 982.65252743 -291.54842523 976.77972534 -293.73388672 970.79296875 C-295.733292 965.12043398 -297.3566266 959.36164861 -298.94238281 953.56201172 C-299.45768555 951.69246826 -299.45768555 951.69246826 -299.98339844 949.78515625 C-302.61334049 940.11852787 -304.72552325 930.37310868 -306.71557617 920.55615234 C-308.37897199 912.55933643 -310.54699223 904.84735556 -313.00488281 897.06201172 C-317.54465998 882.53709654 -320.02063433 867.78577689 -322.42041016 852.79199219 C-322.88465542 849.92856462 -323.37363818 847.07470294 -323.89941406 844.22216797 C-326.0053004 832.69528239 -327.26007448 821.05370315 -328.56005859 809.41357422 C-328.71978843 807.9968778 -328.87977852 806.5802107 -329.04003906 805.16357422 C-329.1180928 804.46467072 -329.19614655 803.76576721 -329.27656555 803.04568481 C-329.72244369 799.18133136 -330.33459256 795.40391843 -331.10644531 791.59326172 C-332.78390966 781.87627262 -332.35074168 771.88916839 -332.31738281 762.06201172 C-332.31556 760.95441498 -332.31373718 759.84681824 -332.31185913 758.70565796 C-332.21703464 724.10831096 -330.94138712 689.41891665 -324.58105469 655.34716797 C-323.99761866 652.14716968 -323.49719384 648.94061321 -323.00097656 645.72607422 C-322.30785023 641.53409597 -321.34449357 637.84676109 -319.62988281 633.93701172 C-317.73468723 629.28416924 -316.33092753 624.76772389 -315.19238281 619.87451172 C-310.20080266 598.5466107 -302.20581368 577.7794252 -292.13183594 558.36279297 C-290.92801947 556.03861352 -289.74012969 553.70662179 -288.55175781 551.37451172 C-282.13366528 538.8722802 -275.20656528 527.5592071 -266.13769531 516.75341797 C-264.28684084 514.52629088 -262.54506806 512.25940269 -260.81738281 509.93701172 C-250.72060823 496.89534454 -238.58908215 485.1706758 -225.69238281 474.93701172 C-220.94684005 471.13646881 -216.74295562 466.96735305 -212.50488281 462.62451172 C-207.51442546 457.52560704 -202.52621732 453.05438048 -196.62207031 449.00732422 C-190.24870801 444.57450805 -184.36700442 439.47353536 -178.69238281 434.18701172 C-173.97929581 429.9384763 -168.77484499 426.68530931 -163.40722656 423.34326172 C-160.54917264 421.55825921 -157.83691124 419.63309942 -155.12988281 417.62451172 C-147.00750268 411.90635611 -137.78954711 407.98465205 -128.84703064 403.73487854 C-126.30695734 402.52622306 -123.76930415 401.31252338 -121.2315979 400.09890747 C-119.37337186 399.21368384 -117.51103731 398.33761203 -115.64819336 397.4621582 C-105.60060755 392.67222857 -96.4017579 387.03833634 -87.06738281 380.99951172 C-83.39344883 378.63654096 -79.66464241 376.39645748 -75.88378906 374.21044922 C-66.40822616 368.72438227 -57.33253835 363.25556968 -48.80175781 356.38232422 C-45.31900339 353.64865385 -41.64970711 351.35597018 -37.88769531 349.03076172 C-32.65363406 345.68323203 -27.66235722 341.98857356 -22.62695312 338.35205078 C-20.37263718 336.73290634 -18.09624413 335.14636292 -15.81738281 333.56201172 C-15.02460937 333.00384766 -14.23183594 332.44568359 -13.41503906 331.87060547 C-11.76828235 330.72027785 -10.1086802 329.58817923 -8.43847656 328.47216797 C2.15564118 321.17811019 11.22071755 311.75943517 19.50292969 301.95263672 C20.51529038 300.75476491 21.5529849 299.57793876 22.61230469 298.42138672 C26.3163818 294.35885053 29.54096473 290.0678839 32.68261719 285.56201172 C36.19349843 280.53779635 39.90335647 275.80560374 43.93261719 271.18701172 C61.99274826 250.40628398 78.76513883 227.78394832 77.23779297 198.93408203 C75.87838214 183.54566081 71.79877206 168.45834872 65.99511719 154.18701172 C65.54048096 153.0473999 65.54048096 153.0473999 65.07666016 151.88476562 C62.82638873 146.26881116 60.45926168 140.71231434 57.99511719 135.18701172 C57.66753418 134.44966797 57.33995117 133.71232422 57.00244141 132.95263672 C49.33822518 115.96687002 37.85203755 103.79557685 20.45214844 96.43310547 C12.64825282 93.62017586 4.70303808 91.2708517 -3.26806641 88.98291016 C-5.60470741 88.30338744 -7.92389302 87.5869368 -10.24316406 86.85107422 C-20.79904875 83.75994288 -30.79431985 83.66972866 -41.71826172 84.08056641 C-45.06927659 84.18909727 -48.41399084 84.20799058 -51.76660156 84.22607422 C-69.82001153 84.60003684 -86.76497536 87.96208587 -104.31738281 92.06201172 C-106.03059219 92.46160095 -106.03059219 92.46160095 -107.77841187 92.8692627 C-111.08235833 93.64743095 -114.38232226 94.44013004 -117.68066406 95.24169922 C-118.65979767 95.47724518 -119.63893127 95.71279114 -120.6477356 95.95547485 C-138.22736539 100.33136857 -152.28574844 108.75964963 -167.07958984 118.875 C-169.00447233 120.18673199 -170.93913273 121.48286651 -172.87597656 122.77685547 C-182.6058602 129.31871653 -191.88883409 136.35409114 -201.06298828 143.65185547 C-202.65568847 144.91095765 -204.26723101 146.14619081 -205.88378906 147.37451172 C-218.1857388 156.92344297 -229.31633144 168.60578967 -239.45410156 180.39331055 C-241.69915239 182.99003417 -244.04019814 185.48768809 -246.37988281 187.99951172 C-251.49353066 193.54346824 -256.32210956 199.27235909 -261.00488281 205.18701172 C-262.20757812 206.69714844 -262.20757812 206.69714844 -263.43457031 208.23779297 C-271.04457473 217.89687367 -277.8271801 228.06083593 -284.31738281 238.49951172 C-287.98727601 244.32102078 -292.03949227 249.85285753 -296.0925293 255.41040039 C-299.43386329 259.99443897 -302.69434982 264.61875777 -305.87988281 269.31201172 C-312.73351663 279.27060672 -312.73351663 279.27060672 -317.00488281 283.18701172 C-317.66488281 283.18701172 -318.32488281 283.18701172 -319.00488281 283.18701172 C-319.33488281 284.17701172 -319.66488281 285.16701172 -320.00488281 286.18701172 C-321.42504883 287.54638672 -321.42504883 287.54638672 -323.25878906 288.93701172 C-323.94046143 289.4577124 -324.62213379 289.97841309 -325.32446289 290.51489258 C-326.06462646 291.06669189 -326.80479004 291.61849121 -327.56738281 292.18701172 C-328.32881592 292.76008057 -329.09024902 293.33314941 -329.87475586 293.92358398 C-357.80810663 314.80221344 -388.90765351 328.66783742 -424.75097656 324.78076172 C-435.40140308 323.17633671 -444.92045517 319.35574773 -454.77978516 315.12548828 C-456.6880941 314.32062329 -458.62004521 313.57221943 -460.55566406 312.83544922 C-467.94995753 310.01583537 -473.86910666 306.16611726 -480.00488281 301.18701172 C-481.27138672 300.16800781 -481.27138672 300.16800781 -482.56347656 299.12841797 C-494.08220135 289.33480641 -501.33272367 277.53133001 -508.00488281 264.18701172 C-508.51148438 263.25630859 -509.01808594 262.32560547 -509.54003906 261.36669922 C-515.5563439 250.17602141 -516.00960236 239.39067962 -512.87988281 227.12451172 C-509.70632046 217.54249977 -502.88152364 208.47467016 -496.00488281 201.18701172 C-495.34488281 201.18701172 -494.68488281 201.18701172 -494.00488281 201.18701172 C-493.79726318 200.65487061 -493.58964355 200.12272949 -493.37573242 199.57446289 C-491.45039091 196.22131693 -488.79431111 193.69139402 -486.07128906 190.98779297 C-485.47871811 190.39330856 -484.88614716 189.79882416 -484.27561951 189.18632507 C-483.01799257 187.92733813 -481.75784031 186.67086944 -480.49536133 185.41674805 C-478.59847241 183.53042809 -476.71231337 181.63386773 -474.82714844 179.73583984 C-467.85473382 172.75578514 -460.740083 166.31893638 -453.00488281 160.18701172 C-451.82866621 159.18095026 -450.65951859 158.16650192 -449.50097656 157.14013672 C-429.19880574 139.16564473 -406.10746115 125.1990816 -382.67919922 111.72753906 C-380.42179653 110.4271729 -378.17044989 109.11749281 -375.92285156 107.80029297 C-369.41233579 104.01303294 -362.8071761 100.52897301 -356.05834961 97.19433594 C-351.28022176 94.83288621 -346.53297533 92.42117582 -341.81738281 89.93701172 C-340.90001343 89.46134766 -340.90001343 89.46134766 -339.96411133 88.97607422 C-337.36852191 87.5988965 -335.03011614 86.20797343 -332.76660156 84.32763672 C-328.51035352 81.02859297 -323.75214052 78.70621696 -319.00488281 76.18701172 C-317.08301535 75.13990509 -315.16244169 74.09042032 -313.24316406 73.03857422 C-301.93516815 66.87323521 -290.6349308 60.72695757 -279.00488281 55.18701172 C-277.9465625 54.68041016 -276.88824219 54.17380859 -275.79785156 53.65185547 C-253.59573459 43.58439009 -229.2264305 37.77237785 -205.52636719 32.41479492 C-199.47804089 31.03394895 -193.5007761 29.56150162 -187.56738281 27.74951172 C-161.70705918 19.95200485 -135.53924363 14.81284112 -109.00566101 9.87265015 C-103.22978036 8.79674349 -97.4611901 7.69542087 -91.70019531 6.54248047 C-61.55773214 0.55951507 -30.68435041 -1.92479203 0 0 Z " fill="#020202" transform="translate(748.0048828125,65.81298828125)"/>
<path d="M0 0 C-1.37977955 4.70411889 -3.38799712 8.71852764 -5.9375 12.875 C-6.3301001 13.52210938 -6.7227002 14.16921875 -7.12719727 14.8359375 C-10.94579467 21.05208511 -15.06961331 27.04438433 -19.24609375 33.0234375 C-21.48045067 36.22745054 -23.63723039 39.47460091 -25.77075195 42.74633789 C-32.45850037 52.96723642 -39.43665418 62.74806799 -48.35498047 71.14697266 C-56.23146394 78.57433077 -60.95883228 85.9823824 -65 96 C-65.42796875 97.05960938 -65.8559375 98.11921875 -66.296875 99.2109375 C-67.27176232 101.78944381 -68.15388838 104.37705397 -69 107 C-69.4125 108.11375 -69.825 109.2275 -70.25 110.375 C-73.46840702 125.93063394 -68.34524313 140.65582512 -60.1796875 153.8046875 C-55.93373426 160.02904189 -50.80216473 165.24893994 -45.4375 170.5 C-43 173 -43 173 -43 175 C-42.34 175 -41.68 175 -41 175 C-39.625 176.3984375 -39.625 176.3984375 -38 178.375 C-24.99395817 193.57547687 -9.93097403 206.29137702 9.21484375 212.7265625 C12.26812009 213.75377415 15.26489799 214.85479202 18.27734375 215.9921875 C23.65664164 217.95354746 29.02541261 219.33213438 34.625 220.5 C36.08413818 220.8108252 36.08413818 220.8108252 37.57275391 221.12792969 C54.88846597 224.72721665 72.46645613 227.85754303 90.17138672 228.28979492 C111.94142173 228.8367886 132.27084048 231.20651582 153 238 C153.75893555 238.24121582 154.51787109 238.48243164 155.29980469 238.73095703 C166.05503607 242.16724637 176.10476574 246.56485891 186 252 C187.51400391 252.83144531 187.51400391 252.83144531 189.05859375 253.6796875 C207.80466584 264.79437989 218.80896813 283.50344168 224.875 303.94921875 C226.95087131 313.13206612 226.43632862 321.71608697 223.3125 330.5625 C223.01069824 331.42020996 222.70889648 332.27791992 222.39794922 333.16162109 C218.71779585 342.7947024 212.69188272 350.27941942 206 358 C205.22527344 358.93070313 204.45054687 359.86140625 203.65234375 360.8203125 C193.58807915 372.52119583 181.90403502 382.57830718 169 391 C168.41669922 391.3810791 167.83339844 391.7621582 167.23242188 392.15478516 C156.96154637 398.76997309 146.1204135 403.98325663 135 409 C134.07026367 409.42490723 133.14052734 409.84981445 132.18261719 410.28759766 C120.03025652 415.82530481 108.03574771 420.98088672 95 424 C94.09572266 424.20963379 93.19144531 424.41926758 92.25976562 424.63525391 C73.97047004 428.74341308 55.65530366 430.57312803 37 432 C35.16646973 432.14574463 35.16646973 432.14574463 33.29589844 432.29443359 C26.43649673 432.81886688 19.62927124 433.15911209 12.75 433.125 C11.92371094 433.12886719 11.09742188 433.13273437 10.24609375 433.13671875 C4.25382287 433.12691143 4.25382287 433.12691143 2 432 C3 429 3 429 4.66381836 427.99194336 C5.38190674 427.69425049 6.09999512 427.39655762 6.83984375 427.08984375 C7.64599121 426.74542236 8.45213867 426.40100098 9.28271484 426.04614258 C10.5968335 425.4973645 10.5968335 425.4973645 11.9375 424.9375 C34.45088768 415.14078712 57.71726014 402.65908093 75 385 C75.98419922 384.06800781 75.98419922 384.06800781 76.98828125 383.1171875 C85.54805533 374.95598383 94.42497849 364.45750797 98 353 C97.82385357 345.58112673 96.11058591 337.57137645 91 332 C86.56987935 328.85996943 81.83950325 326.42911237 77 324 C56.26090029 313.42987858 37.68660251 300.17325256 19.03125 286.3125 C11.72568366 280.88818311 4.48503823 275.53468632 -3.26953125 270.76171875 C-8.76173935 267.21810523 -13.95871168 263.24946761 -19.19384766 259.34033203 C-20.84145729 258.11765335 -22.50397777 256.91513317 -24.16796875 255.71484375 C-29.46791749 251.85715319 -34.37711674 247.81590435 -39.125 243.3125 C-46.26208393 236.54669686 -53.99957094 230.63190639 -61.81054688 224.67089844 C-78.07832618 212.25601423 -78.07832618 212.25601423 -83.43359375 206.60546875 C-85.1840886 204.81132066 -87.03478192 203.19392494 -88.9375 201.5625 C-109.16074881 184.07212265 -135.28302975 154.71309652 -138 127 C-138.92716774 112.73066234 -134.29832686 101.29540437 -125.2265625 90.42578125 C-118.14994232 82.71598979 -109.20234062 77.49899978 -100.44824219 71.91870117 C-95.68525456 68.85178671 -91.26316678 65.72875271 -87 62 C-76.61214511 52.98165193 -64.4781549 46.11019292 -52.76757812 38.96582031 C-35.59505221 28.47012126 -20.55139766 15.93482156 -5.671875 2.42578125 C-3.69608447 0.7408197 -2.62175325 0 0 0 Z " fill="#040404" transform="translate(810,449)"/>
<path d="M0 0 C2.94733835 2.43336109 3.4968254 4.33344126 4.0625 8.0625 C4.57922919 11.98227684 4.57922919 11.98227684 7 15 C7.59765625 17.390625 7.59765625 17.390625 8.0625 20.25 C8.22621094 21.23097656 8.38992188 22.21195313 8.55859375 23.22265625 C8.77708984 24.59744141 8.77708984 24.59744141 9 26 C9.20625 27.216875 9.4125 28.43375 9.625 29.6875 C9.74875 30.450625 9.8725 31.21375 10 32 C10.66 32 11.32 32 12 32 C12.07516846 32.59949463 12.15033691 33.19898926 12.2277832 33.81665039 C12.57874001 36.56674049 12.9454924 39.31450777 13.3125 42.0625 C13.43044922 43.00544922 13.54839844 43.94839844 13.66992188 44.91992188 C14.42733248 50.49368707 15.65225561 54.90690935 18 60 C18.58984375 62.7734375 18.58984375 62.7734375 18.9375 65.375 C19.68364554 69.96473561 21.0411093 73.63208164 23.046875 77.80078125 C25.17831174 82.71880946 26 87.67026608 26 93 C26.66 93 27.32 93 28 93 C28.13277344 93.78246094 28.26554687 94.56492187 28.40234375 95.37109375 C28.57894531 96.38300781 28.75554687 97.39492187 28.9375 98.4375 C29.11152344 99.44683594 29.28554688 100.45617188 29.46484375 101.49609375 C29.74751097 103.9287438 29.74751097 103.9287438 31 105 C31.23481693 107.18292774 31.41363323 109.37203174 31.5625 111.5625 C31.68818359 113.35880859 31.68818359 113.35880859 31.81640625 115.19140625 C31.87699219 116.11824219 31.93757813 117.04507812 32 118 C32.66 118 33.32 118 34 118 C34.1546875 119.7325 34.1546875 119.7325 34.3125 121.5 C34.77444512 125.26155309 35.83071364 128.37708778 37.24609375 131.87109375 C38.35622365 135.00591652 38.86820344 138.20642334 39.45703125 141.47265625 C40.166001 144.77268093 41.28886704 147.85102338 42.51171875 150.9921875 C43.08623814 153.35461123 42.65279952 154.69342166 42 157 C38.97198237 149.15597375 36.61811775 141.27376122 34.5625 133.125 C34.26102051 131.95042236 33.95954102 130.77584473 33.64892578 129.56567383 C32.24920275 124.0780303 30.88825854 118.58441775 29.61328125 113.06640625 C29.40179443 112.15294434 29.19030762 111.23948242 28.97241211 110.29833984 C28.59364484 108.64303248 28.22243211 106.98596341 27.86157227 105.32666016 C26.47824717 99.23437562 24.41486 93.48631237 22.27539062 87.62133789 C20.27563158 81.94323187 18.64971375 76.17982912 17.0625 70.375 C16.71968994 69.13153809 16.37687988 67.88807617 16.02368164 66.60693359 C13.37326195 56.86661233 11.2419631 47.04481873 9.23217773 37.15380859 C7.38995804 28.2942402 4.98084157 19.70754282 2.18334961 11.10400391 C1.89854736 10.22405762 1.61374512 9.34411133 1.3203125 8.4375 C1.06523926 7.67308594 0.81016602 6.90867187 0.54736328 6.12109375 C0 4 0 4 0 0 Z " fill="#585858" transform="translate(432,949)"/>
<path d="M0 0 C2.61829149 2.61829149 3.00174336 4.8773113 4 8.4375 C4.33 9.59121094 4.66 10.74492187 5 11.93359375 C5.34183337 13.28694389 5.67462067 14.64259993 6 16 C6.17877686 16.71986084 6.35755371 17.43972168 6.54174805 18.18139648 C8.66887701 28.03680145 8.59982752 38.14858306 8.8125 48.1875 C8.83501831 49.16743927 8.85753662 50.14737854 8.8807373 51.15701294 C9.19731148 66.00971942 8.92586274 80.37699883 6 95 C5.85449707 95.73234863 5.70899414 96.46469727 5.55908203 97.21923828 C4.81551316 100.84424203 3.98249388 104.43236265 3 108 C1.9887386 104.74645909 1.99990979 102.10041611 2.3046875 98.71875 C2.39363281 97.71199219 2.48257813 96.70523438 2.57421875 95.66796875 C2.67347656 94.62253906 2.77273438 93.57710938 2.875 92.5 C2.96652344 91.45457031 3.05804687 90.40914063 3.15234375 89.33203125 C3.86765343 81.4636248 3.86765343 81.4636248 4.51246643 79.20477295 C5.11184067 76.49422296 5.11956212 73.99857379 5.11352539 71.22167969 C5.11344986 70.0607782 5.11337433 68.89987671 5.11329651 67.70379639 C5.10813522 66.45576233 5.10297394 65.20772827 5.09765625 63.921875 C5.09553383 61.99930878 5.09553383 61.99930878 5.09336853 60.03790283 C5.08955901 56.6381636 5.07974214 53.2384674 5.06866455 49.83874512 C5.05841674 46.366461 5.0538637 42.8941699 5.04882812 39.421875 C5.03811841 32.61456571 5.02106084 25.80728492 5 19 C4.34 19 3.68 19 3 19 C2.49521515 16.58424393 1.99602358 14.16755639 1.5 11.75 C1.35691406 11.06808594 1.21382812 10.38617188 1.06640625 9.68359375 C0.38748951 6.35366879 0 3.41667449 0 0 Z " fill="#575757" transform="translate(931,166)"/>
<path d="M0 0 C-23.13560685 16.26722357 -55.33667067 24.92242407 -83.51782227 20.02246094 C-88.55305356 19.07270349 -93.29676622 18.07230607 -98 16 C-94.87819599 15.03338637 -92.47916205 15.01011091 -89.25 15.4375 C-88.45078125 15.53933594 -87.6515625 15.64117187 -86.828125 15.74609375 C-86.22484375 15.82988281 -85.6215625 15.91367187 -85 16 C-85 16.66 -85 17.32 -85 18 C-58.06152183 19.32730235 -58.06152183 19.32730235 -34 12 C-31.00258143 11.46037396 -27.99445673 11.03451931 -24.98046875 10.59765625 C-22.26257401 10.05265246 -20.42727846 9.25839382 -18 8 C-17.01 8 -16.02 8 -15 8 C-15 7.34 -15 6.68 -15 6 C-12.525 5.505 -12.525 5.505 -10 5 C-10 4.34 -10 3.68 -10 3 C-9.01 3 -8.02 3 -7 3 C-7 2.34 -7 1.68 -7 1 C-3.375 -1.125 -3.375 -1.125 0 0 Z " fill="#484848" transform="translate(404,370)"/>
<path d="M0 0 C2.02748603 0.12659393 4.05552952 0.24450799 6.08398438 0.35449219 C23.35434656 1.29850548 40.03887374 3.8295297 56.99511719 7.18701172 C56.99511719 7.51701172 56.99511719 7.84701172 56.99511719 8.18701172 C55.47471001 8.24207677 53.95369015 8.28027547 52.43261719 8.31201172 C51.16224609 8.34681641 51.16224609 8.34681641 49.86621094 8.38232422 C46.37653341 8.14493119 43.34478836 7.18018556 39.99511719 6.18701172 C30.19526153 4.35178783 20.35252344 3.85770031 10.40893555 3.52856445 C9.5053833 3.49706299 8.60183105 3.46556152 7.67089844 3.43310547 C6.86563721 3.40917725 6.06037598 3.38524902 5.23071289 3.3605957 C2.99511719 3.18701172 2.99511719 3.18701172 1.17637634 2.68325806 C-1.32635981 2.11387425 -3.57376675 2.06713272 -6.140625 2.07348633 C-7.67175934 2.07359962 -7.67175934 2.07359962 -9.23382568 2.07371521 C-10.87620209 2.08145714 -10.87620209 2.08145714 -12.55175781 2.08935547 C-14.24126556 2.09147789 -14.24126556 2.09147789 -15.96490479 2.09364319 C-19.56159117 2.09923972 -23.15821525 2.11179162 -26.75488281 2.12451172 C-29.193684 2.12952716 -31.63248616 2.13408999 -34.07128906 2.13818359 C-40.04917489 2.14920802 -46.0270244 2.16594273 -52.00488281 2.18701172 C-52.00488281 2.84701172 -52.00488281 3.50701172 -52.00488281 4.18701172 C-58.0134883 5.24539299 -63.85115842 5.30363743 -69.94238281 5.24951172 C-70.91240234 5.245 -71.88242187 5.24048828 -72.88183594 5.23583984 C-75.25625041 5.22414322 -77.63053302 5.20775258 -80.00488281 5.18701172 C-80.00488281 4.85701172 -80.00488281 4.52701172 -80.00488281 4.18701172 C-53.24549362 1.08587932 -26.97158614 -1.69189484 0 0 Z " fill="#6D6D6D" transform="translate(748.0048828125,65.81298828125)"/>
<path d="M0 0 C3.44048206 6.44802615 3.18840924 13.55269145 3.3515625 20.703125 C3.37471527 21.62156189 3.39786804 22.53999878 3.42172241 23.48626709 C3.46914785 25.42259718 3.51440629 27.35898143 3.55761719 29.29541016 C3.62447851 32.22713359 3.70246151 35.15841962 3.78125 38.08984375 C4.23489475 56.40621422 4.23489475 56.40621422 3 65 C2.88575684 65.84675293 2.77151367 66.69350586 2.65380859 67.56591797 C0.97111103 79.11151295 -1.22515745 90.25428681 -8 100 C-9.485 100.495 -9.485 100.495 -11 101 C-11 100.34 -11 99.68 -11 99 C-10.34 99 -9.68 99 -9 99 C-9 98.01 -9 97.02 -9 96 C-8.34 96 -7.68 96 -7 96 C0.6709979 74.82804579 0.2863845 52.64260554 0.1373291 30.41387939 C0.11652732 26.97386181 0.10766355 23.53381292 0.09765625 20.09375 C0.075836 13.39575447 0.042545 6.69789431 0 0 Z " fill="#636363" transform="translate(649,1069)"/>
<path d="M0 0 C0.99 0.33 1.98 0.66 3 1 C-18.37973925 15.42400216 -40.03223767 19.74663487 -65.35546875 14.8515625 C-68.42489679 14.13437567 -71.13053799 13.28150731 -74 12 C-69.90352234 10.46382088 -66.21176063 11.30954744 -62 12 C-61.67 12.33 -61.34 12.66 -61 13 C-59.13393554 13.15826545 -57.26225336 13.25120021 -55.390625 13.31640625 C-54.24335937 13.35830078 -53.09609375 13.40019531 -51.9140625 13.44335938 C-50.10035156 13.50233398 -50.10035156 13.50233398 -48.25 13.5625 C-47.05632813 13.60568359 -45.86265625 13.64886719 -44.6328125 13.69335938 C-39.75288636 13.86530308 -34.88342814 14.02647913 -30 14 C-30 13.34 -30 12.68 -30 12 C-29.32195313 11.90203125 -28.64390625 11.8040625 -27.9453125 11.703125 C-21.90872076 10.73325707 -16.59771666 9.26043899 -10.99609375 6.8046875 C-9 6 -9 6 -7 6 C-7 5.34 -7 4.68 -7 4 C-4.525 3.505 -4.525 3.505 -2 3 C-2 2.34 -2 1.68 -2 1 C-1.34 0.67 -0.68 0.34 0 0 Z " fill="#7D7D7D" transform="translate(611,1193)"/>
<path d="M0 0 C0.96933472 0.12846313 0.96933472 0.12846313 1.95825195 0.25952148 C14.51588589 1.89277483 26.96003958 3.18275349 39.625 3.5 C48.6505795 3.73673651 57.53732076 4.32888301 66.5 5.4375 C68.02294678 5.62119141 68.02294678 5.62119141 69.57666016 5.80859375 C76.61132644 6.74088429 76.61132644 6.74088429 80 9 C74.25647159 8.73601365 68.51307394 8.46938041 62.76977539 8.20043945 C60.82156588 8.10956697 58.87332422 8.01938066 56.92504883 7.92993164 C26.35414429 6.52500432 26.35414429 6.52500432 17.3125 4.5 C11.542078 3.27288744 5.88422041 2.40151151 0 2 C0 1.34 0 0.68 0 0 Z " fill="#686868" transform="translate(865,674)"/>
<path d="M0 0 C0.33 0 0.66 0 1 0 C1.00586624 0.55471481 1.01173248 1.10942963 1.01777649 1.68095398 C1.08282934 7.57235181 1.16749814 13.46325812 1.26245117 19.35424805 C1.29525152 21.53875149 1.32341505 23.72333059 1.34643555 25.90795898 C1.0526732 50.46968493 1.0526732 50.46968493 7 74 C8.22921642 80.13062026 8.11513553 86.21436077 8.0625 92.4375 C8.05798828 93.45521484 8.05347656 94.47292969 8.04882812 95.52148438 C8.03712437 98.01438509 8.02072848 100.50716074 8 103 C7.67 103 7.34 103 7 103 C6.89453857 102.17089111 6.78907715 101.34178223 6.68041992 100.48754883 C6.27347978 97.294515 5.86507852 94.10167177 5.45581055 90.90893555 C5.19799521 88.89450397 4.94173795 86.87987317 4.68554688 84.86523438 C4.60105789 84.20698166 4.51656891 83.54872894 4.42951965 82.87052917 C4.2518021 81.48541883 4.07582854 80.10008384 3.90141296 78.71455383 C3.40752317 74.8633563 2.8499641 71.03400321 2.20043945 67.20581055 C-0.17967081 52.82018791 -0.35182089 38.74385094 -0.1875 24.1875 C-0.17240392 21.82618055 -0.15872435 19.46485161 -0.14648438 17.10351562 C-0.11391992 11.40213132 -0.06412279 5.70111236 0 0 Z " fill="#777777" transform="translate(416,800)"/>
<path d="M0 0 C0.33 0 0.66 0 1 0 C1.03738281 1.26585937 1.07476562 2.53171875 1.11328125 3.8359375 C1.53584705 16.17439819 2.36766664 28.4535223 3.4375 40.75 C3.49894196 41.47548035 3.56038391 42.20096069 3.62368774 42.94842529 C4.27718207 50.60735713 5.04136524 58.16800642 6.60522461 65.70727539 C7.20264919 69.1769193 7.13251705 72.48829814 7 76 C6.67 76 6.34 76 6 76 C4.22238661 68.34172848 2.69271734 60.86931847 2.2109375 53.01171875 C2.2138034 51.00396592 2.2138034 51.00396592 1 50 C0.4650365 46.29217984 0.23277804 42.54610847 -0.0625 38.8125 C-0.15120361 37.6972998 -0.23990723 36.58209961 -0.33129883 35.43310547 C-0.89235247 27.82579906 -1.18685723 20.25269873 -1.1875 12.625 C-1.1882251 11.69921143 -1.1889502 10.77342285 -1.18969727 9.81958008 C-1.13596987 3.40790961 -1.13596987 3.40790961 0 0 Z " fill="#5E5E5E" transform="translate(502,704)"/>
<path d="M0 0 C1.67252838 0.00636726 1.67252838 0.00636726 3.37884521 0.01286316 C6.89344826 0.0294764 10.40744921 0.06709533 13.921875 0.10546875 C16.32421039 0.12053803 18.72655489 0.13422248 21.12890625 0.14648438 C26.97676328 0.17932275 32.82427611 0.22934517 38.671875 0.29296875 C38.671875 0.62296875 38.671875 0.95296875 38.671875 1.29296875 C38.03897552 1.32389114 37.40607605 1.35481354 36.7539978 1.38667297 C30.10087364 1.71400588 23.44871648 2.05749377 16.796875 2.40991211 C14.32214814 2.53896525 11.84721069 2.66404922 9.37207031 2.78491211 C-8.40816642 3.50310005 -8.40816642 3.50310005 -25.83740234 6.79370117 C-28.42089734 7.31156505 -29.86899288 7.16023575 -32.328125 6.29296875 C-21.61816878 1.96779412 -11.56550084 -0.16996385 0 0 Z " fill="#585858" transform="translate(685.328125,147.70703125)"/>
<path d="M0 0 C2.94733835 2.43336109 3.4968254 4.33344126 4.0625 8.0625 C4.57922919 11.98227684 4.57922919 11.98227684 7 15 C7.59765625 17.390625 7.59765625 17.390625 8.0625 20.25 C8.22621094 21.23097656 8.38992188 22.21195313 8.55859375 23.22265625 C8.77708984 24.59744141 8.77708984 24.59744141 9 26 C9.20625 27.216875 9.4125 28.43375 9.625 29.6875 C9.74875 30.450625 9.8725 31.21375 10 32 C10.66 32 11.32 32 12 32 C12.08040527 32.60473145 12.16081055 33.20946289 12.24365234 33.83251953 C12.61475493 36.59752494 12.99479905 39.36123158 13.375 42.125 C13.50132812 43.07632813 13.62765625 44.02765625 13.7578125 45.0078125 C14.43838726 49.90795075 15.36608255 54.31610332 17 59 C17.26995323 60.95079406 17.48128297 62.9108672 17.625 64.875 C17.69976562 65.84179688 17.77453125 66.80859375 17.8515625 67.8046875 C17.90054687 68.52914062 17.94953125 69.25359375 18 70 C16.24378247 67.36567371 15.58794016 65.98374368 14.8515625 63.03515625 C14.55403076 61.85119263 14.55403076 61.85119263 14.25048828 60.64331055 C14.04407715 59.79164307 13.83766602 58.93997559 13.625 58.0625 C13.40440918 57.17151611 13.18381836 56.28053223 12.95654297 55.36254883 C11.49025611 49.33359713 10.2614699 43.28573607 9.125 37.1875 C7.48592735 28.41854914 5.02465527 19.9978371 2.28564453 11.51245117 C1.84260986 10.12956909 1.84260986 10.12956909 1.390625 8.71875 C1.12282227 7.90341797 0.85501953 7.08808594 0.57910156 6.24804688 C0 4 0 4 0 0 Z " fill="#787878" transform="translate(432,949)"/>
<path d="M0 0 C17.77347233 2.49534843 33.02069059 5.59589635 49 14 C48.01 14.33 47.02 14.66 46 15 C44.15584793 14.05236989 42.31383496 13.10032409 40.48339844 12.12646484 C35.60711669 9.91459265 30.33188477 8.96991954 25.125 7.8125 C22.87715937 7.30012456 20.62973972 6.78589754 18.3828125 6.26953125 C17.39684082 6.04885986 16.41086914 5.82818848 15.39501953 5.60083008 C13 5 13 5 11 4 C8.69971838 3.76825521 6.40119953 3.61890517 4.09375 3.4765625 C2 3 2 3 0 0 Z " fill="#575757" transform="translate(816,77)"/>
<path d="M0 0 C0.66 0 1.32 0 2 0 C5.23017889 9.09833721 6.01456271 18.70420512 7.125 28.25 C7.21265625 28.98186523 7.3003125 29.71373047 7.390625 30.46777344 C7.9707065 35.6721337 8.07244231 40.76345598 8 46 C7.67 46 7.34 46 7 46 C6.15654395 41.37889255 5.32072185 36.75648736 4.49145508 32.1328125 C4.20928722 30.56539171 3.925162 28.9983218 3.63891602 27.43164062 C1.9718861 18.29946973 0.51553816 9.28648521 0 0 Z " fill="#4A4A4A" transform="translate(424,903)"/>
<path d="M0 0 C0.33 0 0.66 0 1 0 C1.07761873 4.57950501 0.91262448 8.51123959 0 13 C-1.6996758 26.69397887 4.12424758 37.96638131 11.25 49.30078125 C12 51 12 51 11 54 C2.41762444 39.79542308 -6.26012622 24.2346209 -2.328125 7.06640625 C-1.61176494 4.68417115 -0.85164455 2.33695321 0 0 Z " fill="#818181" transform="translate(675,555)"/>
<path d="M0 0 C-0.98806641 0.23187012 -1.97613281 0.46374023 -2.99414062 0.70263672 C-6.69186815 1.57054616 -10.38941666 2.43921623 -14.08691406 3.30810547 C-15.68126705 3.68265905 -17.27566724 4.05701174 -18.87011719 4.43115234 C-21.17395545 4.97179023 -23.47761782 5.51317227 -25.78125 6.0546875 C-26.48366821 6.21935516 -27.18608643 6.38402283 -27.90979004 6.55368042 C-32.61730338 7.66126911 -37.3104938 8.81842834 -42 10 C-42 9.01 -42 8.02 -42 7 C-36.99489512 5.68286714 -32.13896146 4.67873076 -27 4 C-25.33065717 3.68033861 -23.6626783 3.35268934 -22 3 C-22 2.34 -22 1.68 -22 1 C-19.08418447 0.63702296 -16.16774334 0.28431765 -13.25 -0.0625 C-12.0125 -0.2181543 -12.0125 -0.2181543 -10.75 -0.37695312 C-9.95078125 -0.47041016 -9.1515625 -0.56386719 -8.328125 -0.66015625 C-7.5949707 -0.74918213 -6.86181641 -0.83820801 -6.10644531 -0.92993164 C-3.87729995 -1.00408147 -2.12666985 -0.64094299 0 0 Z " fill="#585858" transform="translate(653,156)"/>
<path d="M0 0 C-11.87996807 8.35310255 -24.45081609 14.81762241 -39 17 C-41.234375 16.53515625 -41.234375 16.53515625 -43 16 C-36.985381 12.87118305 -31.42153632 11.35334714 -24.69921875 10.4921875 C-22.08826802 10.01609518 -20.3328959 9.20375439 -18 8 C-17.01 8 -16.02 8 -15 8 C-15 7.34 -15 6.68 -15 6 C-13.35 5.67 -11.7 5.34 -10 5 C-10 4.34 -10 3.68 -10 3 C-9.01 3 -8.02 3 -7 3 C-7 2.34 -7 1.68 -7 1 C-3.375 -1.125 -3.375 -1.125 0 0 Z " fill="#838383" transform="translate(404,370)"/>
<path d="M0 0 C0.66 0.66 1.32 1.32 2 2 C-0.91253333 4.94162286 -3.83073232 7.8775614 -6.75 10.8125 C-7.575 11.64587891 -8.4 12.47925781 -9.25 13.33789062 C-10.04921875 14.14033203 -10.8484375 14.94277344 -11.671875 15.76953125 C-12.77160645 16.87711792 -12.77160645 16.87711792 -13.89355469 18.00708008 C-15.83840039 19.84710968 -17.82373396 21.44521705 -20 23 C-20.66 22.67 -21.32 22.34 -22 22 C-19.65213939 19.45244671 -17.29557543 16.91309815 -14.9375 14.375 C-13.95233398 13.30572266 -13.95233398 13.30572266 -12.94726562 12.21484375 C-8.85219311 7.81717967 -4.63719168 3.82312032 0 0 Z " fill="#4C4C4C" transform="translate(512,550)"/>
<path d="M0 0 C1.77295267 2.659429 2.44884944 4.14445281 3.21875 7.1328125 C3.42886719 7.93976563 3.63898437 8.74671875 3.85546875 9.578125 C4.06816406 10.41859375 4.28085937 11.2590625 4.5 12.125 C4.71269531 12.94226562 4.92539062 13.75953125 5.14453125 14.6015625 C5.77958736 17.06386596 6.39226346 19.53082526 7 22 C7.21011719 22.81952148 7.42023437 23.63904297 7.63671875 24.48339844 C7.82878906 25.27004883 8.02085937 26.05669922 8.21875 26.8671875 C8.39341797 27.5669873 8.56808594 28.26678711 8.74804688 28.98779297 C9.03145623 31.25122312 8.6809646 32.83896733 8 35 C7.34 34.67 6.68 34.34 6 34 C5.40576172 32.12988281 5.40576172 32.12988281 4.9296875 29.703125 C4.75566406 28.8265625 4.58164062 27.95 4.40234375 27.046875 C4.22832031 26.12390625 4.05429687 25.2009375 3.875 24.25 C3.69324219 23.3425 3.51148438 22.435 3.32421875 21.5 C2.4983567 17.25270945 1.90068529 13.3409205 2 9 C1.34 9 0.68 9 0 9 C0 6.03 0 3.06 0 0 Z " fill="#656565" transform="translate(640,1034)"/>
<path d="M0 0 C1.18664272 4.16829962 0.98634939 8.14406441 0.875 12.4375 C0.75899067 19.5573026 1.46778301 25.62788487 3.44140625 32.49609375 C4 35 4 35 3 38 C-2.76537834 26.41326877 -4.49236107 15.40939733 -0.9375 2.75 C-0.4734375 1.38875 -0.4734375 1.38875 0 0 Z " fill="#666666" transform="translate(236,291)"/>
<path d="M0 0 C-7.41591573 3.5008467 -14.22733537 5.66275004 -22.3828125 6.640625 C-24.97540528 6.85379387 -24.97540528 6.85379387 -27 8 C-29.6723621 8.13415472 -32.32250488 8.04318541 -35 8 C-32.0673762 5.0673762 -28.5007041 4.86198803 -24.5625 4.0625 C-18.34013949 2.75509959 -12.23866187 1.31748633 -6.1640625 -0.58203125 C-3.7649074 -1.04540597 -2.29593858 -0.77055473 0 0 Z " fill="#747474" transform="translate(547,99)"/>
<path d="M0 0 C2 2 2 2 2 5 C2.66 5 3.32 5 4 5 C4.103125 6.155 4.20625 7.31 4.3125 8.5 C4.77444512 12.26155309 5.83071364 15.37708778 7.24609375 18.87109375 C8.35622365 22.00591652 8.86820344 25.20642334 9.45703125 28.47265625 C10.166001 31.77268093 11.28886704 34.85102338 12.51171875 37.9921875 C13.08623814 40.35461123 12.65279952 41.69342166 12 44 C8.84114277 35.86022606 6.45414868 27.64677898 4.3125 19.1875 C4.00505859 17.99962891 3.69761719 16.81175781 3.38085938 15.58789062 C2.05209223 10.40366345 0.8225347 5.29195239 0 0 Z " fill="#7B7B7B" transform="translate(462,1062)"/>
<path d="M0 0 C-0.53254395 0.34144043 -1.06508789 0.68288086 -1.61376953 1.03466797 C-12.60754006 8.0965154 -23.46249764 15.27133519 -34 23 C-34.33 22.01 -34.66 21.02 -35 20 C-34.01 20 -33.02 20 -32 20 C-32 19.34 -32 18.68 -32 18 C-31.34 18 -30.68 18 -30 18 C-30 17.34 -30 16.68 -30 16 C-28.35 15.67 -26.7 15.34 -25 15 C-25 14.34 -25 13.68 -25 13 C-23.35 12.34 -21.7 11.68 -20 11 C-20 10.34 -20 9.68 -20 9 C-17.35261084 7.5393715 -16.10551666 7 -13 7 C-13 6.34 -13 5.68 -13 5 C-12.01 5 -11.02 5 -10 5 C-10 4.34 -10 3.68 -10 3 C-9.01 3 -8.02 3 -7 3 C-7 2.34 -7 1.68 -7 1 C-3.375 -1.125 -3.375 -1.125 0 0 Z " fill="#7C7C7C" transform="translate(758,447)"/>
<path d="M0 0 C0.66 0.33 1.32 0.66 2 1 C1.175 1.680625 0.35 2.36125 -0.5 3.0625 C-1.66807804 4.03998256 -2.83462899 5.01929164 -4 6 C-4.59167969 6.49628906 -5.18335938 6.99257813 -5.79296875 7.50390625 C-9.89896531 11.01728475 -13.76443319 14.72042765 -17.5625 18.5625 C-29.11342737 30.21619011 -29.11342737 30.21619011 -35 32 C-31.00311802 27.94198025 -26.8671822 24.05611901 -22.6875 20.1875 C-18.543344 16.34443658 -14.43912869 12.49271303 -10.5 8.4375 C-7.26603966 5.13971149 -3.8410198 2.56067987 0 0 Z " fill="#0F0F0F" transform="translate(550,516)"/>
<path d="M0 0 C-1.54545146 5.47932789 -4.15543212 10.11429181 -7 15 C-7.5534764 12.92446352 -8 11.15634036 -8 9 C-8.66 9 -9.32 9 -10 9 C-10.33 9.99 -10.66 10.98 -11 12 C-12.32 11.67 -13.64 11.34 -15 11 C-13.21079529 9.3514184 -11.4187995 7.70606879 -9.625 6.0625 C-8.86316406 5.35963867 -8.86316406 5.35963867 -8.0859375 4.64257812 C-3.00916142 0 -3.00916142 0 0 0 Z " fill="#444444" transform="translate(810,449)"/>
<path d="M0 0 C6.93234313 1.04459965 13.74866436 2.67005849 20.58984375 4.18359375 C25.37980415 5.23626385 30.1477501 6.26883906 35 7 C35 7.33 35 7.66 35 8 C23.85449243 8.18749452 15.26615032 7.50418847 5 3 C3.3354258 2.32812578 1.66930705 1.66002743 0 1 C0 0.67 0 0.34 0 0 Z " fill="#696969" transform="translate(828,666)"/>
<path d="M0 0 C0.66 0 1.32 0 2 0 C0.42595776 4.80497106 -2.30160126 8.39245665 -5.3125 12.375 C-6.26735012 13.65332996 -7.22177924 14.93197448 -8.17578125 16.2109375 C-8.64193848 16.83323242 -9.1080957 17.45552734 -9.58837891 18.09667969 C-11.76758933 21.03495787 -13.88360806 24.01623431 -16 27 C-16.33 26.01 -16.66 25.02 -17 24 C-16.34 24 -15.68 24 -15 24 C-14.855625 23.401875 -14.71125 22.80375 -14.5625 22.1875 C-14.1127561 20.43849596 -13.57107659 18.71322977 -13 17 C-12.34 17 -11.68 17 -11 17 C-10.7628125 16.30519531 -10.525625 15.61039062 -10.28125 14.89453125 C-8.7689473 11.47801815 -6.74761633 8.64243329 -4.5 5.6875 C-3.89478516 4.86282227 -3.89478516 4.86282227 -3.27734375 4.02148438 C-2.23731309 2.63992549 -1.12366546 1.31443702 0 0 Z " fill="#7F7F7F" transform="translate(456,311)"/>
<path d="M0 0 C4.15437819 6.23156729 3.1237242 14.19891561 3.0625 21.4375 C3.05798828 22.45521484 3.05347656 23.47292969 3.04882812 24.52148438 C3.03712437 27.01438509 3.02072848 29.50716074 3 32 C2.67 32 2.34 32 2 32 C0.3999856 21.25704615 -0.25991325 10.85859801 0 0 Z " fill="#4B4B4B" transform="translate(421,871)"/>
<path d="M0 0 C0.66 0.33 1.32 0.66 2 1 C0 4 0 4 -3 5 C-4.36363208 6.97946592 -5.69418644 8.9819245 -7 11 C-9.0625 13.375 -9.0625 13.375 -11 15 C-11.99 15 -12.98 15 -14 15 C-14 15.66 -14 16.32 -14 17 C-14.66 17 -15.32 17 -16 17 C-12.48792359 9.48350002 -6.71560839 4.65320073 0 0 Z " fill="#6B6B6B" transform="translate(697,529)"/>
<path d="M0 0 C-2.31 0.33 -4.62 0.66 -7 1 C-7 1.66 -7 2.32 -7 3 C-13.75887425 5.07965362 -19.95559921 5.21133202 -27 5 C-22.90604329 2.27069553 -18.84237802 1.749532 -14.0625 0.8125 C-13.15564453 0.62236328 -12.24878906 0.43222656 -11.31445312 0.23632812 C-10.00057617 -0.02567383 -10.00057617 -0.02567383 -8.66015625 -0.29296875 C-7.86230713 -0.4530542 -7.06445801 -0.61313965 -6.24243164 -0.77807617 C-3.88606011 -1.01127614 -2.24187571 -0.71397928 0 0 Z " fill="#5E5E5E" transform="translate(611,83)"/>
<path d="M0 0 C2.36458208 3.54687312 3.35044769 7.13619899 4.5 11.1875 C4.71269531 11.91775391 4.92539062 12.64800781 5.14453125 13.40039062 C6.5423875 18.24143266 7.80273858 23.10563965 9 28 C8.34 28 7.68 28 7 28 C6.731875 27.319375 6.46375 26.63875 6.1875 25.9375 C5.33756316 23.83502467 4.43547356 21.75333745 3.5 19.6875 C0.76496936 12.96388301 -0.25899301 7.25180432 0 0 Z " fill="#6D6D6D" transform="translate(509,780)"/>
<path d="M0 0 C1.97956441 0.14033111 3.95865141 0.2874123 5.9375 0.4375 C7.03964844 0.51871094 8.14179687 0.59992188 9.27734375 0.68359375 C12 1 12 1 13 2 C14.7037908 2.22753357 16.41573499 2.39473238 18.12890625 2.53515625 C19.16337891 2.62216797 20.19785156 2.70917969 21.26367188 2.79882812 C22.8965918 2.9293457 22.8965918 2.9293457 24.5625 3.0625 C26.2012207 3.19881836 26.2012207 3.19881836 27.87304688 3.33789062 C30.58172492 3.56262811 33.29068166 3.78314089 36 4 C36 4.33 36 4.66 36 5 C11.02839644 5.37332962 11.02839644 5.37332962 0 1 C0 0.67 0 0.34 0 0 Z " fill="#303030" transform="translate(537,1204)"/>
<path d="M0 0 C0.93423645 3.01031744 1.04449911 3.86650268 0 7 C-0.47661351 14.90291703 0.06058517 22.32892168 2 30 C1.34 29.67 0.68 29.34 0 29 C0 27.35 0 25.7 0 24 C-0.66 24 -1.32 24 -2 24 C-3.09995958 20.70012125 -3.16747591 18.15967713 -3.1875 14.6875 C-3.20167969 13.57761719 -3.21585938 12.46773437 -3.23046875 11.32421875 C-2.94202877 7.16383863 -1.85920857 3.71841715 0 0 Z " fill="#545454" transform="translate(739,556)"/>
<path d="M0 0 C2.31210132 2.31210132 2.46184889 3.41791477 3.0625 6.5625 C3.46477866 9.5677197 3.46477866 9.5677197 5 12 C5.12712692 14.45088882 5.18520683 16.86110545 5.1875 19.3125 C5.19974609 19.98990234 5.21199219 20.66730469 5.22460938 21.36523438 C5.23580182 25.18185961 4.84091969 27.68889822 3 31 C2.94465088 30.41621582 2.88930176 29.83243164 2.83227539 29.23095703 C2.57594448 26.52894653 2.31922387 23.82697319 2.0625 21.125 C1.93198242 19.74828125 1.93198242 19.74828125 1.79882812 18.34375 C1.21733442 12.22729765 0.61727613 6.11294453 0 0 Z " fill="#626262" transform="translate(823,246)"/>
<path d="M0 0 C0.93457031 0.00322266 1.86914062 0.00644531 2.83203125 0.00976562 C3.80011719 0.01814453 4.76820313 0.02652344 5.765625 0.03515625 C6.74917969 0.03966797 7.73273437 0.04417969 8.74609375 0.04882812 C11.16933291 0.06059142 13.59244773 0.07702941 16.015625 0.09765625 C16.015625 0.42765625 16.015625 0.75765625 16.015625 1.09765625 C15.09523438 1.13503906 14.17484375 1.17242187 13.2265625 1.2109375 C5.16717937 1.62950017 -2.21078968 2.60095314 -10.05859375 4.57421875 C-12.85650111 5.07477894 -14.3527868 5.0580899 -16.984375 4.09765625 C-15.73545886 3.61567162 -14.48518692 3.13719948 -13.234375 2.66015625 C-12.53828125 2.39332031 -11.8421875 2.12648437 -11.125 1.8515625 C-7.3181288 0.51082136 -4.04696416 -0.02467661 0 0 Z " fill="#767676" transform="translate(669.984375,149.90234375)"/>
<path d="M0 0 C0.33 0.99 0.66 1.98 1 3 C0.07976051 4.80639604 -0.84745561 6.60956043 -1.80859375 8.39453125 C-4.22114311 13.67049986 -5.52248993 19.40432357 -7 25 C-7.33 25 -7.66 25 -8 25 C-8 21.7 -8 18.4 -8 15 C-7.01 14.67 -6.02 14.34 -5 14 C-5.061875 12.906875 -5.12375 11.81375 -5.1875 10.6875 C-5 7 -5 7 -3.625 5.3125 C-3.08875 4.879375 -2.5525 4.44625 -2 4 C-0.82425289 1.90010348 -0.82425289 1.90010348 0 0 Z " fill="#696969" transform="translate(932,275)"/>
<path d="M0 0 C0 0.66 0 1.32 0 2 C-3.96 2.66 -7.92 3.32 -12 4 C-12 4.66 -12 5.32 -12 6 C-16.49656104 8.24828052 -20.07872966 8.16682272 -25 8 C-22.83744383 5.83744383 -21.6524925 5.39971937 -18.7890625 4.4921875 C-17.95632813 4.22792969 -17.12359375 3.96367188 -16.265625 3.69140625 C-15.39421875 3.42199219 -14.5228125 3.15257813 -13.625 2.875 C-12.76132812 2.59785156 -11.89765625 2.32070312 -11.0078125 2.03515625 C-7.08144131 0.80513565 -4.17058665 0 0 0 Z " fill="#6A6A6A" transform="translate(512,107)"/>
<path d="M0 0 C5.00045378 4.56563171 4.59195126 10.59873542 5 17 C5.06901954 20.0066635 5.04931131 22.99200998 5 26 C4.67 26 4.34 26 4 26 C3.32754163 22.41772843 2.66304461 18.8340249 2 15.25 C1.80921875 14.23421875 1.6184375 13.2184375 1.421875 12.171875 C1.15117187 10.70234375 1.15117187 10.70234375 0.875 9.203125 C0.70742188 8.30239258 0.53984375 7.40166016 0.3671875 6.47363281 C0 4 0 4 0 0 Z " fill="#6B6B6B" transform="translate(427,923)"/>
<path d="M0 0 C0 0.66 0 1.32 0 2 C-0.99 2 -1.98 2 -3 2 C-3.35964844 2.87205078 -3.35964844 2.87205078 -3.7265625 3.76171875 C-5.25450023 6.44732709 -6.95426402 7.90245084 -9.375 9.8125 C-10.14585937 10.43769531 -10.91671875 11.06289063 -11.7109375 11.70703125 C-14 13 -14 13 -16.2890625 12.69921875 C-16.85367188 12.46847656 -17.41828125 12.23773438 -18 12 C-16.27427512 10.55836993 -14.5442653 9.12186835 -12.8125 7.6875 C-11.84957031 6.88699219 -10.88664063 6.08648437 -9.89453125 5.26171875 C-3.16062176 0 -3.16062176 0 0 0 Z " fill="#6A6A6A" transform="translate(706,419)"/>
<path d="M0 0 C-8.60159081 4.63162582 -16.52395508 4.42324766 -26 4 C-26 3.67 -26 3.34 -26 3 C-22.4192122 2.29876984 -18.8350783 1.6164242 -15.25 0.9375 C-13.72632813 0.63875977 -13.72632813 0.63875977 -12.171875 0.33398438 C-10.70234375 0.05844727 -10.70234375 0.05844727 -9.203125 -0.22265625 C-8.30239258 -0.39547119 -7.40166016 -0.56828613 -6.47363281 -0.74633789 C-3.9979814 -1.000207 -2.34682951 -0.7687064 0 0 Z " fill="#646464" transform="translate(637,78)"/>
<path d="M0 0 C2.94733835 2.43336109 3.4968254 4.33344126 4.0625 8.0625 C4.57922919 11.98227684 4.57922919 11.98227684 7 15 C7.66796875 17.4609375 7.66796875 17.4609375 8.1875 20.375 C8.45626953 21.80972656 8.45626953 21.80972656 8.73046875 23.2734375 C8.99137612 25.91276132 8.70843213 27.49221049 8 30 C6.65747832 25.75284696 5.32758026 21.50184488 4 17.25 C3.6184375 16.0434375 3.236875 14.836875 2.84375 13.59375 C2.4828125 12.43359375 2.121875 11.2734375 1.75 10.078125 C1.24726563 8.47565918 1.24726563 8.47565918 0.734375 6.84082031 C0 4 0 4 0 0 Z " fill="#7C7C7C" transform="translate(432,949)"/>
<path d="M0 0 C0.66 0 1.32 0 2 0 C0.6671703 4.43613466 -1.08737275 8.19986474 -3.4375 12.1875 C-4.33275391 13.72470703 -4.33275391 13.72470703 -5.24609375 15.29296875 C-6.70464111 17.54413427 -7.92626581 19.31906226 -10 21 C-10.66 21 -11.32 21 -12 21 C-11.34 19.68 -10.68 18.36 -10 17 C-9.34 17 -8.68 17 -8 17 C-7.7834375 16.071875 -7.7834375 16.071875 -7.5625 15.125 C-7 13 -7 13 -6 11 C-5.34 11 -4.68 11 -4 11 C-4 9.68 -4 8.36 -4 7 C-3.34 7 -2.68 7 -2 7 C-1.855625 6.030625 -1.71125 5.06125 -1.5625 4.0625 C-1 1 -1 1 0 0 Z " fill="#797979" transform="translate(922,300)"/>
<path d="M0 0 C0.66 0 1.32 0 2 0 C0.49649346 4.3398513 -1.80665245 7.90186195 -4.4375 11.625 C-5.03014648 12.48351562 -5.03014648 12.48351562 -5.63476562 13.359375 C-7.5717284 16.13106882 -9.48936786 18.72347825 -12 21 C-11.46968862 16.4923533 -9.74778884 13.58045212 -7 10 C-6.34 10 -5.68 10 -5 10 C-4.9175 9.46375 -4.835 8.9275 -4.75 8.375 C-3.72418729 5.12659309 -2.03436106 2.71248141 0 0 Z " fill="#868686" transform="translate(795,471)"/>
<path d="M0 0 C2.69378789 2.69378789 3.13672837 5.22574981 4.1875 8.875 C4.55230469 10.10992187 4.91710937 11.34484375 5.29296875 12.6171875 C5.93501035 15.68905505 6.12677877 17.14357992 5 20 C4.34 19.67 3.68 19.34 3 19 C2.35580318 16.55027908 1.83063467 14.17256869 1.375 11.6875 C1.2409375 11.01009766 1.106875 10.33269531 0.96875 9.63476562 C0.33689469 6.33686777 0 3.37262326 0 0 Z " fill="#636363" transform="translate(931,166)"/>
<path d="M0 0 C5.42510027 0.76154482 10.84035913 1.57284429 16.25 2.4375 C17.45269531 2.62022461 17.45269531 2.62022461 18.6796875 2.80664062 C19.45054687 2.93103516 20.22140625 3.05542969 21.015625 3.18359375 C21.70946289 3.29243896 22.40330078 3.40128418 23.11816406 3.51342773 C25 4 25 4 28 6 C26.87722656 5.86722656 25.75445313 5.73445313 24.59765625 5.59765625 C23.5149646 5.47015991 23.5149646 5.47015991 22.41040039 5.34008789 C20.84297861 5.15477453 19.27575728 4.96775793 17.70874023 4.77905273 C13.66208155 4.2951809 9.62583059 3.88328926 5.5625 3.5625 C4.386875 3.376875 3.21125 3.19125 2 3 C1.34 2.01 0.68 1.02 0 0 Z " fill="#6F6F6F" transform="translate(816,77)"/>
<path d="M0 0 C1.32 0 2.64 0 4 0 C4 0.66 4 1.32 4 2 C4.763125 2.103125 5.52625 2.20625 6.3125 2.3125 C9.29123061 3.07450085 9.9368354 3.85087021 12 6 C13.66392045 6.67349161 15.33032028 7.3409159 17 8 C17.33 8.66 17.66 9.32 18 10 C20.01669827 11.13350534 20.01669827 11.13350534 22 12 C19 13 19 13 16.9152832 12.02783203 C16.13499756 11.52622559 15.35471191 11.02461914 14.55078125 10.5078125 C13.70322266 9.96769531 12.85566406 9.42757812 11.98242188 8.87109375 C11.10134766 8.29488281 10.22027344 7.71867188 9.3125 7.125 C8.41982422 6.55652344 7.52714844 5.98804688 6.60742188 5.40234375 C1.84848995 2.3412126 1.84848995 2.3412126 0 1 C0 0.67 0 0.34 0 0 Z " fill="#8B8B8B" transform="translate(853,752)"/>
<path d="M0 0 C6.39895163 2.90861438 11.58246742 6.53555185 17 11 C14 12 14 12 11 11 C11 10.34 11 9.68 11 9 C10.21625 8.690625 9.4325 8.38125 8.625 8.0625 C6 7 6 7 4 6 C4 5.34 4 4.68 4 4 C3.34 4 2.68 4 2 4 C2 3.34 2 2.68 2 2 C1.34 2 0.68 2 0 2 C0 1.34 0 0.68 0 0 Z " fill="#727272" transform="translate(865,92)"/>
<path d="M0 0 C0.66 0 1.32 0 2 0 C2.37125 1.216875 2.7425 2.43375 3.125 3.6875 C4.89412231 9.08933464 7.36649868 14.09537591 9.890625 19.1796875 C11 22 11 22 10 25 C8.69902339 22.33753623 7.40917717 19.67055529 6.125 17 C5.76019531 16.25621094 5.39539063 15.51242187 5.01953125 14.74609375 C2.692722 9.88094714 1.13865085 5.27375129 0 0 Z " fill="#848484" transform="translate(485,1130)"/>
<path d="M0 0 C4.90161095 0.62594246 8.84709213 2.71819643 13.1875 4.9375 C13.91130859 5.29779297 14.63511719 5.65808594 15.38085938 6.02929688 C20.7324953 8.7324953 20.7324953 8.7324953 23 11 C20.69 10.67 18.38 10.34 16 10 C16 9.34 16 8.68 16 8 C14.824375 7.6596875 14.824375 7.6596875 13.625 7.3125 C8.87698375 5.59339067 4.47897448 3.31915279 0 1 C0 0.67 0 0.34 0 0 Z " fill="#8E8E8E" transform="translate(975,692)"/>
<path d="M0 0 C0.66 0.33 1.32 0.66 2 1 C-1.34552881 5.23110997 -4.56768138 8.8879465 -9 12 C-11.18359375 11.62890625 -11.18359375 11.62890625 -13 11 C-11.58510266 9.72719706 -10.16800334 8.4568417 -8.75 7.1875 C-7.96109375 6.47980469 -7.1721875 5.77210938 -6.359375 5.04296875 C-4.2983167 3.25831065 -2.20394477 1.60240938 0 0 Z " fill="#7F7F7F" transform="translate(313,211)"/>
<path d="M0 0 C0 0.66 0 1.32 0 2 C-1.6796875 3.65625 -1.6796875 3.65625 -3.875 5.5 C-5.99035504 7.28933258 -8.04019124 9.04019124 -10 11 C-12.125 10.625 -12.125 10.625 -14 10 C-12.37744772 8.51814875 -10.75188112 7.03959744 -9.125 5.5625 C-8.22007812 4.73878906 -7.31515625 3.91507812 -6.3828125 3.06640625 C-2.84688091 0 -2.84688091 0 0 0 Z " fill="#6A6A6A" transform="translate(795,462)"/>
<path d="M0 0 C-2.43404713 1.8173021 -4.87196449 3.6289489 -7.3125 5.4375 C-8.34793945 6.2119043 -8.34793945 6.2119043 -9.40429688 7.00195312 C-10.07138672 7.49501953 -10.73847656 7.98808594 -11.42578125 8.49609375 C-12.03848877 8.95169678 -12.65119629 9.4072998 -13.2824707 9.87670898 C-15 11 -15 11 -18 12 C-18 11.34 -18 10.68 -18 10 C-17.34 10 -16.68 10 -16 10 C-16 9.34 -16 8.68 -16 8 C-13.4385343 5.70351351 -12.52032428 5 -9 5 C-9 4.34 -9 3.68 -9 3 C-8.34 3 -7.68 3 -7 3 C-7 2.34 -7 1.68 -7 1 C-3.375 -1.125 -3.375 -1.125 0 0 Z " fill="#8A8A8A" transform="translate(714,477)"/>
<path d="M0 0 C0.33 0.99 0.66 1.98 1 3 C-0.41346562 4.44064765 -1.83091211 5.87739015 -3.25 7.3125 C-4.03890625 8.11300781 -4.8278125 8.91351563 -5.640625 9.73828125 C-7.67394067 11.68743651 -9.70601078 13.37421406 -12 15 C-12.66 14.67 -13.32 14.34 -14 14 C-9.38 9.38 -4.76 4.76 0 0 Z " fill="#4E4E4E" transform="translate(275,244)"/>
<path d="M0 0 C0.99 0 1.98 0 3 0 C3.13277344 0.78246094 3.26554687 1.56492187 3.40234375 2.37109375 C3.57894531 3.38300781 3.75554687 4.39492187 3.9375 5.4375 C4.11152344 6.44683594 4.28554688 7.45617188 4.46484375 8.49609375 C4.74751097 10.9287438 4.74751097 10.9287438 6 12 C6.14115161 14.67058851 6.04247107 17.32432238 6 20 C4.14723653 16.60326697 3.00950804 13.13095396 1.875 9.4375 C1.52179688 8.30183594 1.16859375 7.16617187 0.8046875 5.99609375 C0 3 0 3 0 0 Z " fill="#666666" transform="translate(457,1042)"/>
<path d="M0 0 C4.75097043 4.19203274 8.3879305 9.20631201 11 15 C10.67 15.99 10.34 16.98 10 18 C9.8453125 17.0409375 9.8453125 17.0409375 9.6875 16.0625 C9.460625 15.381875 9.23375 14.70125 9 14 C8.01 13.67 7.02 13.34 6 13 C6 11.68 6 10.36 6 9 C5.34 9 4.68 9 4 9 C4 8.34 4 7.68 4 7 C3.01 6.67 2.02 6.34 1 6 C0.67 4.02 0.34 2.04 0 0 Z " fill="#7E7E7E" transform="translate(574,926)"/>
<path d="M0 0 C0.33 0 0.66 0 1 0 C1.07654536 4.51617599 1.10228696 8.59085217 0 13 C-0.66 13 -1.32 13 -2 13 C-2 15.64 -2 18.28 -2 21 C-2.33 21 -2.66 21 -3 21 C-3.38999191 13.40237976 -2.60758587 7.15533979 0 0 Z " fill="#6F6F6F" transform="translate(675,555)"/>
<path d="M0 0 C-7.42365707 3.33307052 -13.80895456 5.2874051 -22 5 C-22 4.67 -22 4.34 -22 4 C-19.08644159 3.13372595 -16.16995672 2.28168994 -13.25 1.4375 C-12.425 1.19064453 -11.6 0.94378906 -10.75 0.68945312 C-9.95078125 0.46064453 -9.1515625 0.23183594 -8.328125 -0.00390625 C-7.5949707 -0.21861572 -6.86181641 -0.4333252 -6.10644531 -0.65454102 C-3.76130184 -1.03914672 -2.24174192 -0.72878764 0 0 Z " fill="#737373" transform="translate(569,93)"/>
<path d="M0 0 C0.66 0.33 1.32 0.66 2 1 C-4.44736842 7.63157895 -4.44736842 7.63157895 -8 10 C-9.32 9.67 -10.64 9.34 -12 9 C-8.04 6.03 -4.08 3.06 0 0 Z " fill="#757575" transform="translate(735,502)"/>
<path d="M0 0 C0 0.66 0 1.32 0 2 C-0.60328125 2.32613281 -1.2065625 2.65226563 -1.828125 2.98828125 C-3.02695312 3.64376953 -3.02695312 3.64376953 -4.25 4.3125 C-5.03890625 4.74175781 -5.8278125 5.17101562 -6.640625 5.61328125 C-9.03680611 6.93188012 -9.03680611 6.93188012 -11.046875 8.73046875 C-13 10 -13 10 -15.25 9.6875 C-15.8275 9.460625 -16.405 9.23375 -17 9 C-3.89320388 0 -3.89320388 0 0 0 Z " fill="#707070" transform="translate(431,142)"/>
<path d="M0 0 C1.97625073 2.9643761 3.29886906 5.78787746 4.6875 9.0625 C5.14511719 10.12597656 5.60273437 11.18945312 6.07421875 12.28515625 C6.37972656 13.18105469 6.68523438 14.07695313 7 15 C6.67 15.66 6.34 16.32 6 17 C3.37613513 13.93882432 3 13.26826873 3 9 C2.01 8.67 1.02 8.34 0 8 C0 5.36 0 2.72 0 0 Z " fill="#727272" transform="translate(528,834)"/>
<path d="M0 0 C0 0.66 0 1.32 0 2 C-1.91345327 2.53251766 -3.8309295 3.05059483 -5.75 3.5625 C-6.81734375 3.85253906 -7.8846875 4.14257812 -8.984375 4.44140625 C-11.84335927 4.97098494 -13.31597383 4.98370862 -16 4 C-10.45108785 1.18150494 -6.258654 -0.5326514 0 0 Z " fill="#666666" transform="translate(377,382)"/>
<path d="M0 0 C2.08163365 3.12245047 3.32575613 6.07034881 4.6875 9.5625 C5.14511719 10.71878906 5.60273437 11.87507812 6.07421875 13.06640625 C7 16 7 16 6 18 C3.70620251 14.55930376 3 13.27709699 3 9 C2.34 9 1.68 9 1 9 C0.67 6.03 0.34 3.06 0 0 Z " fill="#7C7C7C" transform="translate(518,808)"/>
<path d="M0 0 C0.99 0.33 1.98 0.66 3 1 C-1.62 4.3 -6.24 7.6 -11 11 C-11.33 10.01 -11.66 9.02 -12 8 C-11.01 8 -10.02 8 -9 8 C-9 7.34 -9 6.68 -9 6 C-8.34 6 -7.68 6 -7 6 C-7 5.34 -7 4.68 -7 4 C-5.35 3.67 -3.7 3.34 -2 3 C-2 2.34 -2 1.68 -2 1 C-1.34 0.67 -0.68 0.34 0 0 Z " fill="#8B8B8B" transform="translate(735,459)"/>
<path d="M0 0 C2.63884562 2.40111178 4.36413529 5.00555028 6.1875 8.0625 C6.71730469 8.94035156 7.24710938 9.81820312 7.79296875 10.72265625 C9 13 9 13 9 15 C8.34 15 7.68 15 7 15 C3.22910606 10.49893296 0.30693113 5.98515697 0 0 Z " fill="#6B6B6B" transform="translate(604,972)"/>
<path d="M0 0 C0.33 0.99 0.66 1.98 1 3 C-0.45217676 4.50596108 -1.91192861 6.00462104 -3.375 7.5 C-4.18710937 8.3353125 -4.99921875 9.170625 -5.8359375 10.03125 C-8 12 -8 12 -10 12 C-9.67 11.01 -9.34 10.02 -9 9 C-8.34 9 -7.68 9 -7 9 C-6.6596875 8.1646875 -6.6596875 8.1646875 -6.3125 7.3125 C-4.64103234 4.36753316 -2.44723648 2.31843456 0 0 Z " fill="#707070" transform="translate(578,585)"/>
<path d="M0 0 C0.33 1.32 0.66 2.64 1 4 C1.66 4 2.32 4 3 4 C3.33 7.3 3.66 10.6 4 14 C3.67 13.34 3.34 12.68 3 12 C2.34 12 1.68 12 1 12 C0.03929566 9.11788698 -0.10581883 7.30149956 -0.0625 4.3125 C-0.05347656 3.50425781 -0.04445313 2.69601562 -0.03515625 1.86328125 C-0.02355469 1.24839844 -0.01195312 0.63351562 0 0 Z " fill="#4A4A4A" transform="translate(441,977)"/>
<path d="M0 0 C0 0.66 0 1.32 0 2 C-3.55477643 4.97735082 -6.86488289 6.89865026 -11.5 7.3125 C-12.325 7.209375 -13.15 7.10625 -14 7 C-12.5438656 4.08773121 -10.50039336 3.68157936 -7.5625 2.375 C-6.07943359 1.70597656 -6.07943359 1.70597656 -4.56640625 1.0234375 C-2 0 -2 0 0 0 Z " fill="#747474" transform="translate(643,459)"/>
<path d="M0 0 C2 3 2 3 2 6 C2.66 6 3.32 6 4 6 C4.33 8.97 4.66 11.94 5 15 C4.01 14.67 3.02 14.34 2 14 C1.66179834 12.4176994 1.32964061 10.83410625 1 9.25 C0.814375 8.36828125 0.62875 7.4865625 0.4375 6.578125 C0 4 0 4 0 0 Z " fill="#484848" transform="translate(644,1054)"/>
<path d="M0 0 C0.66 0 1.32 0 2 0 C0.51131293 4.60139641 -1.74629855 7.50227094 -5 11 C-5.66 11 -6.32 11 -7 11 C-5.51131293 6.39860359 -3.25370145 3.49772906 0 0 Z " fill="#757575" transform="translate(456,311)"/>
<path d="M0 0 C0.66 0.33 1.32 0.66 2 1 C-0.64 3.97 -3.28 6.94 -6 10 C-7.32 9.67 -8.64 9.34 -10 9 C-6.7 6.03 -3.4 3.06 0 0 Z " fill="#7A7A7A" transform="translate(298,223)"/>
<path d="M0 0 C-1.89091736 0.84442881 -3.78797515 1.67511587 -5.6875 2.5 C-7.27111328 3.19609375 -7.27111328 3.19609375 -8.88671875 3.90625 C-11.85627816 4.94950801 -13.89195063 5.23065301 -17 5 C-14.36095629 3.58622659 -11.92879371 2.62759865 -9 2 C-9 1.34 -9 0.68 -9 0 C-5.5657338 -0.85856655 -3.38317487 -0.97591583 0 0 Z " fill="#484848" transform="translate(547,99)"/>
<path d="M0 0 C0.66 0.33 1.32 0.66 2 1 C-0.57784846 3.64752004 -2.91648098 5.94432065 -6 8 C-7.32 7.67 -8.64 7.34 -10 7 C-6.7 4.69 -3.4 2.38 0 0 Z " fill="#787878" transform="translate(774,477)"/>
<path d="M0 0 C0 0.66 0 1.32 0 2 C-0.99 2 -1.98 2 -3 2 C-3.33 2.99 -3.66 3.98 -4 5 C-5.8125 6.75 -5.8125 6.75 -8 8 C-10.13671875 7.578125 -10.13671875 7.578125 -12 7 C-10.3790787 5.82767315 -8.75313167 4.6622923 -7.125 3.5 C-6.22007812 2.8503125 -5.31515625 2.200625 -4.3828125 1.53125 C-2 0 -2 0 0 0 Z " fill="#7E7E7E" transform="translate(718,411)"/>
<path d="M0 0 C3 1 3 1 4.203125 2.92578125 C4.54859375 3.71339844 4.8940625 4.50101563 5.25 5.3125 C5.60578125 6.09238281 5.9615625 6.87226562 6.328125 7.67578125 C7.0711335 10.24607227 6.88750996 11.51383429 6 14 C4.9923048 12.2335343 3.99408286 10.46166177 3 8.6875 C2.443125 7.70136719 1.88625 6.71523437 1.3125 5.69921875 C0 3 0 3 0 0 Z " fill="#818181" transform="translate(496,1155)"/>
<path d="M0 0 C0 0.66 0 1.32 0 2 C-0.99 2 -1.98 2 -3 2 C-3.165 2.61875 -3.33 3.2375 -3.5 3.875 C-5.90181375 7.27756949 -9.00162134 7.22612026 -13 8 C-10.83676753 5.68757908 -8.62352196 3.9843604 -5.9375 2.3125 C-5.24527344 1.87550781 -4.55304687 1.43851562 -3.83984375 0.98828125 C-2 0 -2 0 0 0 Z " fill="#7C7C7C" transform="translate(759,488)"/>
<path d="M0 0 C4.29 0.33 8.58 0.66 13 1 C13 1.99 13 2.98 13 4 C8.28596212 3.52060632 4.33420699 3.03165952 0 1 C0 0.67 0 0.34 0 0 Z " fill="#686868" transform="translate(306,385)"/>
<path d="M0 0 C5.26371362 -0.50130606 7.9090934 0.68831371 12 4 C12 4.66 12 5.32 12 6 C12.66 6 13.32 6 14 6 C13.67 6.66 13.34 7.32 13 8 C11.39528272 7.04258894 9.79124671 6.08403595 8.1875 5.125 C7.29417969 4.59132812 6.40085937 4.05765625 5.48046875 3.5078125 C3.62705276 2.38116908 1.80470083 1.20313389 0 0 Z " fill="#757575" transform="translate(771,163)"/>
<path d="M0 0 C3.96 0.33 7.92 0.66 12 1 C12.33 1.99 12.66 2.98 13 4 C8.28596212 3.52060632 4.33420699 3.03165952 0 1 C0 0.67 0 0.34 0 0 Z " fill="#717171" transform="translate(537,1204)"/>
<path d="M0 0 C2.63978826 3.18595135 5.10498388 6.30970546 7 10 C6.67 10.66 6.34 11.32 6 12 C5.01 11.67 4.02 11.34 3 11 C2.67 8.69 2.34 6.38 2 4 C1.34 4 0.68 4 0 4 C0 2.68 0 1.36 0 0 Z " fill="#7C7C7C" transform="translate(619,995)"/>
<path d="M0 0 C0.93423645 3.01031744 1.04449911 3.86650268 0 7 C-0.22451458 9.22574335 -0.40782878 11.45581519 -0.5625 13.6875 C-0.64628906 14.86699219 -0.73007812 16.04648437 -0.81640625 17.26171875 C-0.87699219 18.16535156 -0.93757812 19.06898438 -1 20 C-1.33 20 -1.66 20 -2 20 C-2.05392397 17.22890693 -2.09363455 14.45886182 -2.125 11.6875 C-2.14175781 10.90181641 -2.15851562 10.11613281 -2.17578125 9.30664062 C-2.18544922 8.1706543 -2.18544922 8.1706543 -2.1953125 7.01171875 C-2.20578613 6.31522217 -2.21625977 5.61872559 -2.22705078 4.90112305 C-2 3 -2 3 0 0 Z " fill="#686868" transform="translate(739,556)"/>
<path d="M0 0 C-4.90924297 3.92739438 -7.73920552 4.43177893 -14 4 C-4.81927711 -2.12048193 -4.81927711 -2.12048193 0 0 Z " fill="#717171" transform="translate(487,116)"/>
<path d="M0 0 C1.97566188 1.97566188 2.89579072 3.52337094 4.125 6 C4.47820313 6.70125 4.83140625 7.4025 5.1953125 8.125 C6 10 6 10 6 12 C3 11 3 11 1.3125 7.6875 C0 4 0 4 0 0 Z " fill="#777777" transform="translate(538,856)"/>
<path d="M0 0 C0.33 1.32 0.66 2.64 1 4 C0.34 4 -0.32 4 -1 4 C-1.66 5.32 -2.32 6.64 -3 8 C-3.66 8 -4.32 8 -5 8 C-5 8.66 -5 9.32 -5 10 C-5.66 10 -6.32 10 -7 10 C-5.33248852 6.05860922 -2.77289351 3.2107188 0 0 Z " fill="#747474" transform="translate(251,269)"/>
<path d="M0 0 C0.66 0.33 1.32 0.66 2 1 C-0.64 4.3 -3.28 7.6 -6 11 C-6.33 10.01 -6.66 9.02 -7 8 C-5.56640625 5.95703125 -5.56640625 5.95703125 -3.5625 3.8125 C-2.90378906 3.09707031 -2.24507813 2.38164062 -1.56640625 1.64453125 C-1.04949219 1.10183594 -0.53257812 0.55914062 0 0 Z " fill="#808080" transform="translate(489,265)"/>
<path d="M0 0 C0 0.33 0 0.66 0 1 C-2.10170656 1.53067341 -4.20647598 2.04922857 -6.3125 2.5625 C-7.48425781 2.85253906 -8.65601563 3.14257812 -9.86328125 3.44140625 C-13 4 -13 4 -16 3 C-11.918638 -1.081362 -5.43630843 -0.09372946 0 0 Z " fill="#7E7E7E" transform="translate(641,158)"/>
<path d="M0 0 C0.99 0.495 0.99 0.495 2 1 C4.38056989 8.64288227 4.38056989 8.64288227 3 13 C0.78145293 8.37802694 -0.38281159 5.23175837 0 0 Z " fill="#6D6D6D" transform="translate(471,1093)"/>
<path d="M0 0 C2.64 0.66 5.28 1.32 8 2 C8 2.99 8 3.98 8 5 C9.32 5.33 10.64 5.66 12 6 C10.265625 6.6796875 10.265625 6.6796875 8 7 C5.859375 5.8203125 5.859375 5.8203125 3.75 4.125 C3.04359375 3.57070313 2.3371875 3.01640625 1.609375 2.4453125 C1.07828125 1.96835937 0.5471875 1.49140625 0 1 C0 0.67 0 0.34 0 0 Z " fill="#797979" transform="translate(834,738)"/>
<path d="M0 0 C2.31 0.66 4.62 1.32 7 2 C7 2.66 7 3.32 7 4 C7.66 4 8.32 4 9 4 C9 4.66 9 5.32 9 6 C9.66 6 10.32 6 11 6 C10.67 6.66 10.34 7.32 10 8 C8.33055479 6.85821872 6.6645052 5.71147095 5 4.5625 C4.071875 3.92441406 3.14375 3.28632812 2.1875 2.62890625 C1.465625 2.09136719 0.74375 1.55382812 0 1 C0 0.67 0 0.34 0 0 Z " fill="#848484" transform="translate(782,701)"/>
<path d="M0 0 C0.75 1.6875 0.75 1.6875 1 4 C-0.875 6.625 -0.875 6.625 -3 9 C-3.33 9.66 -3.66 10.32 -4 11 C-4.66 11 -5.32 11 -6 11 C-4.54955729 6.89041233 -2.48889248 3.56741255 0 0 Z " fill="#808080" transform="translate(475,591)"/>
<path d="M0 0 C0 0.99 0 1.98 0 3 C-3.4352048 5.29013653 -4.985331 5.17842973 -9 5 C-6.45523312 2.20075644 -3.92372883 0 0 0 Z " fill="#6B6B6B" transform="translate(462,125)"/>
<path d="M0 0 C1.79068573 2.6860286 2.66055791 4.6626589 3.625 7.6875 C3.88539062 8.49574219 4.14578125 9.30398438 4.4140625 10.13671875 C4.60742188 10.75160156 4.80078125 11.36648438 5 12 C4.34 11.67 3.68 11.34 3 11 C3 10.34 3 9.68 3 9 C2.34 9 1.68 9 1 9 C0.67 6.03 0.34 3.06 0 0 Z " fill="#7E7E7E" transform="translate(1028,737)"/>
<path d="M0 0 C4.29 1.32 8.58 2.64 13 4 C8.87585243 5.03103689 8.0158858 4.94701684 4.25 3.5625 C3.45078125 3.27503906 2.6515625 2.98757813 1.828125 2.69140625 C1.22484375 2.46324219 0.6215625 2.23507812 0 2 C0 1.34 0 0.68 0 0 Z " fill="#7F7F7F" transform="translate(815,661)"/>
<path d="M0 0 C0 0.66 0 1.32 0 2 C-0.66 2 -1.32 2 -2 2 C-2.33 2.99 -2.66 3.98 -3 5 C-4.98 5 -6.96 5 -9 5 C-6.45523312 2.20075644 -3.92372883 0 0 0 Z " fill="#717171" transform="translate(660,449)"/>
<path d="M0 0 C0 0.66 0 1.32 0 2 C-0.99 2.33 -1.98 2.66 -3 3 C-4.68538601 4.99665314 -4.68538601 4.99665314 -6 7 C-7.32 6.67 -8.64 6.34 -10 6 C-8.71283353 4.99421411 -7.42011342 3.99553202 -6.125 3 C-5.40570312 2.443125 -4.68640625 1.88625 -3.9453125 1.3125 C-2 0 -2 0 0 0 Z " fill="#808080" transform="translate(732,401)"/>
<path d="M0 0 C1.32 0.33 2.64 0.66 4 1 C4 1.99 4 2.98 4 4 C4.99 4.33 5.98 4.66 7 5 C7.33 6.65 7.66 8.3 8 10 C4.71211176 6.88983545 2.16264012 3.98381075 0 0 Z " fill="#616161" transform="translate(250,347)"/>
<path d="M0 0 C1.5 1.3125 1.5 1.3125 3 3 C3 3.99 3 4.98 3 6 C3.99 6.33 4.98 6.66 6 7 C6 8.65 6 10.3 6 12 C0 4.8 0 4.8 0 0 Z " fill="#747474" transform="translate(244,335)"/>
<path d="M0 0 C0.99 0.33 1.98 0.66 3 1 C1.88121617 2.17262904 0.75476949 3.33795138 -0.375 4.5 C-1.00148438 5.1496875 -1.62796875 5.799375 -2.2734375 6.46875 C-4 8 -4 8 -6 8 C-6 7.34 -6 6.68 -6 6 C-5.34 6 -4.68 6 -4 6 C-3.71125 5.38125 -3.4225 4.7625 -3.125 4.125 C-2 2 -2 2 0 0 Z " fill="#888888" transform="translate(907,323)"/>
<path d="M0 0 C0 0.66 0 1.32 0 2 C-1.65 2.66 -3.3 3.32 -5 4 C-5 4.66 -5 5.32 -5 6 C-6.32 6 -7.64 6 -9 6 C-9 5.34 -9 4.68 -9 4 C-2.25 0 -2.25 0 0 0 Z " fill="#6E6E6E" transform="translate(358,183)"/>
<path d="M0 0 C2.64 1.98 5.28 3.96 8 6 C4 7 4 7 2 6 C2 5.34 2 4.68 2 4 C1.34 4 0.68 4 0 4 C0 2.68 0 1.36 0 0 Z " fill="#6E6E6E" transform="translate(892,112)"/>
<path d="M0 0 C2.45823172 3.68734758 3.01242616 6.69699971 4 11 C2.68 10.34 1.36 9.68 0 9 C0 6.03 0 3.06 0 0 Z " fill="#737373" transform="translate(640,1034)"/>
<path d="M0 0 C1.77226453 0.28284018 3.542788 0.57660498 5.3125 0.875 C6.29863281 1.03742187 7.28476562 1.19984375 8.30078125 1.3671875 C11 2 11 2 14 4 C12.04082341 3.9131252 10.08258129 3.80495488 8.125 3.6875 C6.48917969 3.60048828 6.48917969 3.60048828 4.8203125 3.51171875 C3.88960937 3.34285156 2.95890625 3.17398438 2 3 C1.34 2.01 0.68 1.02 0 0 Z " fill="#7B7B7B" transform="translate(946,683)"/>
<path d="M0 0 C0.66 0.33 1.32 0.66 2 1 C-0.62652025 4.59930552 -2.93963643 7.07666989 -7 9 C-7.66 8.67 -8.32 8.34 -9 8 C-6.03 5.36 -3.06 2.72 0 0 Z " fill="#767676" transform="translate(524,539)"/>
<path d="M0 0 C0.99 0.33 1.98 0.66 3 1 C0.69 3.64 -1.62 6.28 -4 9 C-4.33 8.01 -4.66 7.02 -5 6 C-3.59554165 3.7363436 -1.8032087 1.9791315 0 0 Z " fill="#818181" transform="translate(497,255)"/>
<path d="M0 0 C1.14926266 0.95421808 2.29430541 1.91352045 3.4375 2.875 C4.07558594 3.40867187 4.71367188 3.94234375 5.37109375 4.4921875 C7 6 7 6 8 8 C4.21479387 7.45925627 2.40822445 5.92427254 0 3 C0 2.01 0 1.02 0 0 Z " fill="#535353" transform="translate(902,121)"/>
<path d="M0 0 C2.97 0.495 2.97 0.495 6 1 C6 1.99 6 2.98 6 4 C7.32 4.33 8.64 4.66 10 5 C9.01 5.33 8.02 5.66 7 6 C5.17578125 5.0390625 5.17578125 5.0390625 3.3125 3.625 C2.68988281 3.16351562 2.06726563 2.70203125 1.42578125 2.2265625 C0.95527344 1.82179688 0.48476563 1.41703125 0 1 C0 0.67 0 0.34 0 0 Z " fill="#7E7E7E" transform="translate(522,1195)"/>
<path d="M0 0 C2.61885488 2.36944013 4.41866551 4.83733102 6 8 C5.67 8.99 5.34 9.98 5 11 C4.896875 10.360625 4.79375 9.72125 4.6875 9.0625 C4.460625 8.381875 4.23375 7.70125 4 7 C3.01 6.67 2.02 6.34 1 6 C0.67 4.02 0.34 2.04 0 0 Z " fill="#858585" transform="translate(626,1007)"/>
<path d="M0 0 C2.74277578 3.19990508 4.6302836 6.00499382 6 10 C4.68 9.34 3.36 8.68 2 8 C2 6.68 2 5.36 2 4 C1.34 4 0.68 4 0 4 C0 2.68 0 1.36 0 0 Z " fill="#828282" transform="translate(593,955)"/>
<path d="M0 0 C2.74277578 3.19990508 4.6302836 6.00499382 6 10 C4.68 9.34 3.36 8.68 2 8 C2 6.68 2 5.36 2 4 C1.34 4 0.68 4 0 4 C0 2.68 0 1.36 0 0 Z " fill="#858585" transform="translate(568,916)"/>
<path d="M0 0 C2.4375 0.375 2.4375 0.375 5 1 C5.33 1.66 5.66 2.32 6 3 C8.01669827 4.13350534 8.01669827 4.13350534 10 5 C9.01 5.33 8.02 5.66 7 6 C5.17578125 5.0390625 5.17578125 5.0390625 3.3125 3.625 C2.68988281 3.16351562 2.06726563 2.70203125 1.42578125 2.2265625 C0.95527344 1.82179688 0.48476563 1.41703125 0 1 C0 0.67 0 0.34 0 0 Z " fill="#767676" transform="translate(865,759)"/>
<path d="M0 0 C2.74277578 3.19990508 4.6302836 6.00499382 6 10 C4.68 9.34 3.36 8.68 2 8 C2 6.68 2 5.36 2 4 C1.34 4 0.68 4 0 4 C0 2.68 0 1.36 0 0 Z " fill="#818181" transform="translate(1020,723)"/>
<path d="M0 0 C2.875 0.3125 2.875 0.3125 6 1 C6.66 1.99 7.32 2.98 8 4 C7.67 4.99 7.34 5.98 7 7 C5.83040013 6.02433888 4.66438823 5.044375 3.5 4.0625 C2.8503125 3.51722656 2.200625 2.97195313 1.53125 2.41015625 C1.0259375 1.94480469 0.520625 1.47945312 0 1 C0 0.67 0 0.34 0 0 Z " fill="#666666" transform="translate(721,650)"/>
<path d="M0 0 C0.33 1.32 0.66 2.64 1 4 C0.01 4.495 0.01 4.495 -1 5 C-1.72159424 6.64363134 -2.39351421 8.31050386 -3 10 C-3.66 10 -4.32 10 -5 10 C-3.84414715 6.08788267 -2.64465038 3.1254959 0 0 Z " fill="#7F7F7F" transform="translate(468,602)"/>
<path d="M0 0 C-0.33 1.32 -0.66 2.64 -1 4 C-3.31 4.33 -5.62 4.66 -8 5 C-3.16129032 0 -3.16129032 0 0 0 Z " fill="#737373" transform="translate(713,520)"/>
<path d="M0 0 C0.66 0.33 1.32 0.66 2 1 C-1.56430755 4.14985318 -4.40693504 6.5140084 -9 8 C-6.14723863 5.06799526 -3.34920216 2.35684596 0 0 Z " fill="#5D5D5D" transform="translate(550,516)"/>
<path d="M0 0 C0.66 0.33 1.32 0.66 2 1 C-0.25 3.5625 -0.25 3.5625 -3 6 C-4.32 5.67 -5.64 5.34 -7 5 C-4.69 3.35 -2.38 1.7 0 0 Z " fill="#7F7F7F" transform="translate(744,496)"/>
<path d="M0 0 C0 2 0 2 -1.75 4.1875 C-2.4925 4.785625 -3.235 5.38375 -4 6 C-6.25 5.75 -6.25 5.75 -8 5 C-2.25 0 -2.25 0 0 0 Z " fill="#7A7A7A" transform="translate(795,462)"/>
<path d="M0 0 C0 0.66 0 1.32 0 2 C-0.99 2 -1.98 2 -3 2 C-3.66 3.32 -4.32 4.64 -5 6 C-6.32 5.67 -7.64 5.34 -9 5 C-7.87926138 4.16094435 -6.75325453 3.32892169 -5.625 2.5 C-4.99851562 2.0359375 -4.37203125 1.571875 -3.7265625 1.09375 C-2 0 -2 0 0 0 Z " fill="#7F7F7F" transform="translate(706,419)"/>
<path d="M0 0 C0.99 0.33 1.98 0.66 3 1 C0.69 3.31 -1.62 5.62 -4 8 C-4.33 7.01 -4.66 6.02 -5 5 C-3.625 3.5 -3.625 3.5 -2 2 C-1.34 2 -0.68 2 0 2 C0 1.34 0 0.68 0 0 Z " fill="#919191" transform="translate(891,340)"/>
<path d="M0 0 C2.25 0.25 2.25 0.25 4 1 C2.25 3.0625 2.25 3.0625 0 5 C-2.25 4.75 -2.25 4.75 -4 4 C-2.25 1.9375 -2.25 1.9375 0 0 Z " fill="#6A6A6A" transform="translate(304,218)"/>
<path d="M0 0 C2.74277578 3.19990508 4.6302836 6.00499382 6 10 C4.68 9.34 3.36 8.68 2 8 C2 6.68 2 5.36 2 4 C1.34 4 0.68 4 0 4 C0 2.68 0 1.36 0 0 Z " fill="#848484" transform="translate(915,135)"/>
<path d="M0 0 C6.875 3.75 6.875 3.75 8 6 C5.03 5.505 5.03 5.505 2 5 C2 4.34 2 3.68 2 3 C1.01 2.67 0.02 2.34 -1 2 C-0.67 1.34 -0.34 0.68 0 0 Z " fill="#5D5D5D" transform="translate(874,98)"/>
<path d="M0 0 C4.95 1.98 4.95 1.98 10 4 C9.34 4.66 8.68 5.32 8 6 C5 6 5 6 3.4375 4.5625 C2.963125 4.046875 2.48875 3.53125 2 3 C1.34 2.67 0.68 2.34 0 2 C0 1.34 0 0.68 0 0 Z " fill="#787878" transform="translate(804,656)"/>
<path d="M0 0 C0.99 0.33 1.98 0.66 3 1 C-1.455 3.97 -1.455 3.97 -6 7 C-6 6.01 -6 5.02 -6 4 C-3 2 -3 2 0 2 C0 1.34 0 0.68 0 0 Z " fill="#8C8C8C" transform="translate(633,536)"/>
<path d="M0 0 C0.66 0.33 1.32 0.66 2 1 C0.02 3.97 0.02 3.97 -2 7 C-3.32 6.67 -4.64 6.34 -6 6 C-4.02 4.02 -2.04 2.04 0 0 Z " fill="#838383" transform="translate(801,454)"/>
<path d="M0 0 C-1.75 5.75 -1.75 5.75 -4 8 C-4.33 6.02 -4.66 4.04 -5 2 C-2 0 -2 0 0 0 Z " fill="#9D9D9D" transform="translate(810,449)"/>
<path d="M0 0 C0.99 0.33 1.98 0.66 3 1 C1.87926138 1.83905565 0.75325453 2.67107831 -0.375 3.5 C-1.00148438 3.9640625 -1.62796875 4.428125 -2.2734375 4.90625 C-4 6 -4 6 -6 6 C-5.67 5.01 -5.34 4.02 -5 3 C-4.01 3 -3.02 3 -2 3 C-2 2.34 -2 1.68 -2 1 C-1.34 0.67 -0.68 0.34 0 0 Z " fill="#858585" transform="translate(583,180)"/>
<path d="M0 0 C2.97 0.99 5.94 1.98 9 3 C8.67 3.99 8.34 4.98 8 6 C6.66402348 5.19185349 5.331275 4.37836819 4 3.5625 C3.2575 3.11003906 2.515 2.65757812 1.75 2.19140625 C1.1725 1.79824219 0.595 1.40507813 0 1 C0 0.67 0 0.34 0 0 Z " fill="#828282" transform="translate(810,721)"/>
<path d="M0 0 C0.66 0.33 1.32 0.66 2 1 C0.35 2.98 -1.3 4.96 -3 7 C-4.32 6.67 -5.64 6.34 -7 6 C-4.69 4.02 -2.38 2.04 0 0 Z " fill="#939393" transform="translate(720,513)"/>
<path d="M0 0 C0.33 0.99 0.66 1.98 1 3 C-0.40445835 5.2636564 -2.1967913 7.0208685 -4 9 C-4.33 8.01 -4.66 7.02 -5 6 C-3.59554165 3.7363436 -1.8032087 1.9791315 0 0 Z " fill="#7A7A7A" transform="translate(772,505)"/>
<path d="M0 0 C2.97 0.33 5.94 0.66 9 1 C9.33 1.99 9.66 2.98 10 4 C6.7 3.01 3.4 2.02 0 1 C0 0.67 0 0.34 0 0 Z " fill="#797979" transform="translate(291,379)"/>
<path d="M0 0 C0.99 0.33 1.98 0.66 3 1 C0.525 4.465 0.525 4.465 -2 8 C-2.33 6.68 -2.66 5.36 -3 4 C-1.5625 1.75 -1.5625 1.75 0 0 Z " fill="#888888" transform="translate(448,322)"/>
<path d="M0 0 C0.99 0.33 1.98 0.66 3 1 C-0.465 3.97 -0.465 3.97 -4 7 C-3.04065919 3.16263678 -2.76390737 2.40339772 0 0 Z " fill="#8F8F8F" transform="translate(508,243)"/>
<path d="M0 0 C0 0.66 0 1.32 0 2 C-0.99 2.33 -1.98 2.66 -3 3 C-3.99 4.485 -3.99 4.485 -5 6 C-6.32 5.67 -7.64 5.34 -9 5 C-7.87926138 4.16094435 -6.75325453 3.32892169 -5.625 2.5 C-4.99851562 2.0359375 -4.37203125 1.571875 -3.7265625 1.09375 C-2 0 -2 0 0 0 Z " fill="#8B8B8B" transform="translate(338,195)"/>
<path d="M0 0 C1.27875 -0.061875 2.5575 -0.12375 3.875 -0.1875 C4.95394531 -0.23970703 4.95394531 -0.23970703 6.0546875 -0.29296875 C6.69664062 -0.19628906 7.33859375 -0.09960938 8 0 C8.66 0.99 9.32 1.98 10 3 C3.375 2.25 3.375 2.25 0 0 Z " fill="#666666" transform="translate(746,154)"/>
<path d="M0 0 C0 0.66 0 1.32 0 2 C-4.15267176 5.11450382 -4.15267176 5.11450382 -7.3125 4.6875 C-7.869375 4.460625 -8.42625 4.23375 -9 4 C-2.25 0 -2.25 0 0 0 Z " fill="#777777" transform="translate(440,137)"/>
<path d="M0 0 C0 0.66 0 1.32 0 2 C-5.45769231 5.10096154 -5.45769231 5.10096154 -8.203125 4.58984375 C-8.79609375 4.39519531 -9.3890625 4.20054688 -10 4 C-8.71086513 3.32845067 -7.41859796 2.66291141 -6.125 2 C-5.40570313 1.62875 -4.68640625 1.2575 -3.9453125 0.875 C-2 0 -2 0 0 0 Z " fill="#888888" transform="translate(473,120)"/>
<path d="M0 0 C5.53846154 0.61538462 5.53846154 0.61538462 7.875 2.5625 C8.431875 3.2740625 8.431875 3.2740625 9 4 C6.69 3.67 4.38 3.34 2 3 C2 2.34 2 1.68 2 1 C1.34 0.67 0.68 0.34 0 0 Z " fill="#727272" transform="translate(989,699)"/>
<path d="M0 0 C2.97 0.495 2.97 0.495 6 1 C6.33 2.65 6.66 4.3 7 6 C5.83054208 5.19152271 4.66449539 4.37810888 3.5 3.5625 C2.8503125 3.11003906 2.200625 2.65757812 1.53125 2.19140625 C1.0259375 1.79824219 0.520625 1.40507813 0 1 C0 0.67 0 0.34 0 0 Z " fill="#727272" transform="translate(736,663)"/>
<path d="M0 0 C2.96865509 2.54456151 4.3619751 5.48994665 6 9 C5.34 9 4.68 9 4 9 C4 8.34 4 7.68 4 7 C3.01 6.67 2.02 6.34 1 6 C0.67 4.02 0.34 2.04 0 0 Z " fill="#8A8A8A" transform="translate(746,598)"/>
<path d="M0 0 C3.71888239 0.50712033 6.73454239 1.11608215 10 3 C8.72125 3.061875 7.4425 3.12375 6.125 3.1875 C5.40570312 3.22230469 4.68640625 3.25710937 3.9453125 3.29296875 C3.30335938 3.19628906 2.66140625 3.09960938 2 3 C1.34 2.01 0.68 1.02 0 0 Z " fill="#707070" transform="translate(806,74)"/>
</svg>
